<svg xmlns="http://www.w3.org/2000/svg" xmlns:xlink="http://www.w3.org/1999/xlink" id="Layer_1" x="0px" y="0px" width="638px" height="286px" viewBox="0 0 638 286" xml:space="preserve"><g>	<g>		<path fill-rule="evenodd" clip-rule="evenodd" fill="#0000FF" d="M221.454,194.342c0,27.218-22.07,49.289-49.289,49.289H69.482   c-27.22,0-49.29-22.07-49.29-49.289V91.658c0-27.219,22.069-49.288,49.29-49.288h102.683c27.219,0,49.289,22.069,49.289,49.288   V194.342z"></path>		<g>			<g>				<path fill-rule="evenodd" clip-rule="evenodd" fill="#FFFFFF" d="M175.193,149.261c0,5.818-4.435,10.58-9.856,10.58     s-9.856-4.762-9.856-10.58v-29.73c0-5.816,4.435-10.577,9.856-10.577s9.856,4.761,9.856,10.577V149.261z"></path>				<path fill-rule="evenodd" clip-rule="evenodd" fill="#FFFFFF" d="M146.835,167.593c0,5.82-4.438,10.578-9.856,10.578     c-5.42,0-9.859-4.758-9.859-10.578V98.652c0-5.817,4.439-10.575,9.859-10.575c5.417,0,9.856,4.758,9.856,10.575V167.593z"></path>				<path fill-rule="evenodd" clip-rule="evenodd" fill="#FFFFFF" d="M118.479,167.593c0,5.82-4.438,10.578-9.858,10.578     s-9.857-4.758-9.857-10.578V98.652c0-5.817,4.437-10.575,9.857-10.575s9.858,4.758,9.858,10.575V167.593z"></path>				<path fill-rule="evenodd" clip-rule="evenodd" fill="#FFFFFF" d="M90.12,193.925c0,5.82-4.437,10.577-9.857,10.577     s-9.854-4.757-9.854-10.577v-74.542c0-5.817,4.434-10.579,9.854-10.579s9.857,4.762,9.857,10.579V193.925z"></path>			</g>		</g>	</g>	<g>		<g>			<path fill="#FFFFFF" d="M300.032,135.998c-1.906,3.584-4.956,6.499-9.147,8.747c-4.192,2.249-9.567,3.374-16.122,3.374h-14.407    v32.245h-13.036v-79.469h27.443c6.098,0,11.262,1.048,15.492,3.144c4.231,2.099,7.394,4.938,9.492,8.519    c2.096,3.584,3.144,7.587,3.144,12.007C302.891,128.605,301.937,132.417,300.032,135.998z M285.853,134.111    c2.439-2.246,3.66-5.432,3.66-9.547c0-8.69-4.917-13.034-14.75-13.034h-14.407v25.954h14.407    C279.716,137.484,283.414,136.362,285.853,134.111z"></path>			<path fill="#FFFFFF" d="M324.956,177.333c-4.803-2.705-8.574-6.519-11.318-11.436s-4.117-10.613-4.117-17.094    c0-6.403,1.408-12.08,4.23-17.037c2.819-4.954,6.67-8.766,11.549-11.434c4.877-2.668,10.328-4.002,16.352-4.002    c6.02,0,11.471,1.334,16.352,4.002c4.877,2.668,8.727,6.479,11.547,11.434c2.819,4.957,4.231,10.634,4.231,17.037    c0,6.404-1.45,12.082-4.345,17.037c-2.898,4.957-6.844,8.787-11.834,11.492c-4.995,2.706-10.504,4.059-16.523,4.059    C335.133,181.392,329.759,180.04,324.956,177.333z M350.513,167.671c2.934-1.602,5.316-4.003,7.146-7.204    s2.744-7.089,2.744-11.663c0-4.572-0.877-8.442-2.631-11.605c-1.754-3.162-4.078-5.547-6.975-7.147    c-2.897-1.6-6.021-2.4-9.375-2.4c-3.355,0-6.461,0.801-9.32,2.4c-2.857,1.601-5.128,3.985-6.803,7.147    c-1.678,3.163-2.516,7.033-2.516,11.605c0,6.785,1.734,12.025,5.203,15.723c3.467,3.697,7.832,5.546,13.092,5.546    C344.433,170.073,347.577,169.272,350.513,167.671z"></path>			<path fill="#FFFFFF" d="M384.698,131.767c2.631-4.877,6.213-8.67,10.749-11.377c4.534-2.705,9.585-4.059,15.15-4.059    c4.116,0,8.175,0.896,12.179,2.686c4,1.792,7.183,4.175,9.547,7.147V95.75h13.148v84.614h-13.148v-9.49    c-2.135,3.048-5.088,5.565-8.862,7.546c-3.772,1.98-8.1,2.973-12.977,2.973c-5.489,0-10.503-1.391-15.037-4.173    c-4.536-2.782-8.118-6.671-10.749-11.664c-2.629-4.991-3.943-10.65-3.943-16.979    C380.755,142.249,382.069,136.648,384.698,131.767z M429.636,137.484c-1.793-3.201-4.136-5.64-7.031-7.317    c-2.897-1.675-6.023-2.516-9.377-2.516c-3.355,0-6.48,0.82-9.375,2.459c-2.899,1.64-5.242,4.041-7.032,7.202    c-1.793,3.164-2.688,6.92-2.688,11.264c0,4.345,0.896,8.157,2.688,11.435c1.79,3.278,4.153,5.774,7.089,7.489    c2.934,1.715,6.04,2.573,9.318,2.573c3.354,0,6.479-0.839,9.377-2.515c2.896-1.677,5.238-4.136,7.031-7.376    c1.791-3.24,2.688-7.032,2.688-11.378C432.323,144.459,431.427,140.687,429.636,137.484z"></path>			<path fill="#FFFFFF" d="M518.308,153.72h-48.139c0.381,5.031,2.248,9.072,5.603,12.121c3.354,3.051,7.471,4.573,12.351,4.573    c7.012,0,11.967-2.933,14.865-8.805h14.063c-1.906,5.796-5.355,10.54-10.348,14.236c-4.994,3.698-11.188,5.546-18.58,5.546    c-6.023,0-11.417-1.353-16.18-4.059c-4.766-2.705-8.501-6.519-11.206-11.436c-2.706-4.917-4.06-10.613-4.06-17.094    c0-6.479,1.316-12.178,3.945-17.094c2.629-4.917,6.326-8.709,11.092-11.377c4.762-2.668,10.232-4.002,16.408-4.002    c5.945,0,11.243,1.297,15.893,3.888c4.648,2.593,8.271,6.231,10.863,10.92s3.887,10.081,3.887,16.18    C518.765,149.681,518.61,151.816,518.308,153.72z M505.158,143.202c-0.077-4.802-1.792-8.65-5.146-11.55    c-3.355-2.895-7.508-4.344-12.463-4.344c-4.498,0-8.348,1.429-11.549,4.288s-5.107,6.728-5.717,11.605H505.158z"></path>			<path fill="#FFFFFF" d="M541.175,177.333c-4.803-2.705-8.576-6.519-11.32-11.436c-2.743-4.917-4.115-10.613-4.115-17.094    c0-6.403,1.408-12.08,4.23-17.037c2.818-4.954,6.67-8.766,11.549-11.434c4.877-2.668,10.328-4.002,16.351-4.002    c6.021,0,11.472,1.334,16.353,4.002c4.875,2.668,8.726,6.479,11.547,11.434c2.82,4.957,4.231,10.634,4.231,17.037    c0,6.404-1.45,12.082-4.345,17.037c-2.898,4.957-6.844,8.787-11.834,11.492c-4.995,2.706-10.504,4.059-16.523,4.059    C551.352,181.392,545.978,180.04,541.175,177.333z M566.729,167.671c2.935-1.602,5.318-4.003,7.148-7.204    s2.744-7.089,2.744-11.663c0-4.572-0.878-8.442-2.631-11.605c-1.755-3.162-4.078-5.547-6.975-7.147    c-2.897-1.6-6.021-2.4-9.375-2.4c-3.355,0-6.461,0.801-9.32,2.4c-2.857,1.601-5.127,3.985-6.803,7.147    c-1.678,3.163-2.516,7.033-2.516,11.605c0,6.785,1.732,12.025,5.202,15.723c3.468,3.697,7.833,5.546,13.093,5.546    C560.651,170.073,563.796,169.272,566.729,167.671z"></path>		</g>	</g>	<g>		<path fill="#FFFFFF" d="M601.354,115.586v1.512h-3.885v12.735h-1.86v-12.735h-3.903v-1.512H601.354z"></path>		<path fill="#FFFFFF" d="M617.808,115.689v14.145h-1.859v-10.549l-4.702,10.549h-1.308l-4.723-10.567v10.567h-1.859v-14.145h2.004   l5.232,11.692l5.232-11.692H617.808z"></path>	</g></g></svg>