<svg xmlns="http://www.w3.org/2000/svg" version="1.1" xmlns:xlink="http://www.w3.org/1999/xlink" xmlns:svgjs="http://svgjs.dev/svgjs" width="1015" height="525" preserveAspectRatio="none" viewBox="0 0 1015 525"><g mask="url(&quot;#SvgjsMask1997&quot;)" fill="none"><circle r="4.63" cx="523.53" cy="416.17" filter="url(#SvgjsFilter1998)" fill="rgba(255, 255, 255, 1)"></circle><circle r="4.39" cx="368.72999999999996" cy="347.44" filter="url(#SvgjsFilter1998)" fill="rgba(255, 255, 255, 1)"></circle><circle r="4.44" cx="829.3000000000001" cy="43.589999999999996" filter="url(#SvgjsFilter1998)" fill="rgba(255, 255, 255, 1)"></circle><circle r="7.525" cx="411.42499999999995" cy="497.84499999999997" filter="url(#SvgjsFilter1998)" fill="rgba(255, 255, 255, 1)"></circle><circle r="6.615" cx="541.295" cy="336.575" filter="url(#SvgjsFilter1998)" fill="rgba(255, 255, 255, 1)"></circle><circle r="5.195" cx="756.4150000000001" cy="132.015" filter="url(#SvgjsFilter1998)" fill="rgba(255, 255, 255, 1)"></circle><circle r="7.535" cx="907.3449999999999" cy="407.90500000000003" filter="url(#SvgjsFilter1998)" fill="rgba(255, 255, 255, 1)"></circle><circle r="4.74" cx="882.03" cy="93.35" filter="url(#SvgjsFilter1998)" fill="rgba(255, 255, 255, 1)"></circle><circle r="4.675" cx="382.33500000000004" cy="151.955" filter="url(#SvgjsFilter1998)" fill="rgba(255, 255, 255, 1)"></circle><circle r="6.88" cx="527.82" cy="241.12" filter="url(#SvgjsFilter1998)" fill="rgba(255, 255, 255, 1)"></circle><circle r="4.525" cx="160.01500000000001" cy="517.755" filter="url(#SvgjsFilter1998)" fill="rgba(255, 255, 255, 1)"></circle><circle r="7.34" cx="851.8100000000001" cy="60.17" filter="url(#SvgjsFilter1998)" fill="rgba(255, 255, 255, 1)"></circle><circle r="8.03" cx="177.53" cy="205.59" filter="url(#SvgjsFilter1998)" fill="rgba(255, 255, 255, 1)"></circle><circle r="6.345" cx="122.435" cy="421.95500000000004" filter="url(#SvgjsFilter1998)" fill="rgba(255, 255, 255, 1)"></circle><circle r="5.35" cx="415.97" cy="133.04" filter="url(#SvgjsFilter1998)" fill="rgba(255, 255, 255, 1)"></circle><circle r="8.72" cx="395.38000000000005" cy="37.62" filter="url(#SvgjsFilter1998)" fill="rgba(255, 255, 255, 1)"></circle><circle r="7.965" cx="709.595" cy="165.915" filter="url(#SvgjsFilter1998)" fill="rgba(255, 255, 255, 1)"></circle><circle r="6.215" cx="806.395" cy="261.005" filter="url(#SvgjsFilter1998)" fill="rgba(255, 255, 255, 1)"></circle><circle r="6.695" cx="486.555" cy="349.72499999999997" filter="url(#SvgjsFilter1998)" fill="rgba(255, 255, 255, 1)"></circle><circle r="6.86" cx="809.09" cy="501.3" filter="url(#SvgjsFilter1998)" fill="rgba(255, 255, 255, 1)"></circle><path d="M567.5 362.4L601.9 377.2 614 408.3 581.1 403.3 559.1 373C559.1 373 558.7 372.7 558.7 372.7 558 372.2 556.8 372.3 555.8 372.7 554.6 373.5 554.5 375.1 555.6 376L574.9 402.4 558.9 400 550.2 388.4C550.2 388.4 549.9 388.2 549.9 388.2 549.2 387.6 547.9 387.7 547 388.2 545.8 388.9 545.6 390.6 546.7 391.4L552.4 399.4 540.6 397.5C539.6 397.3 538.2 398.5 538 399.4 537.5 400.8 538.9 401.9 539.9 402.1L551.6 404 543.6 409.7C542.4 410.5 542.3 412.1 543.3 413 544.1 414.2 545.7 414.3 546.6 413.2L558.1 404.6 573.8 407.3 547.4 426.6C546.2 427.4 546.1 429 547.1 429.9 547.9 431.1 549.5 431.2 550.4 430.2L580.7 408.2 613.6 413.2 592.5 439.6 555.1 443.8C553.8 443.9 553 445 553.1 446.2 553.3 447.5 554.3 448.3 555.6 448.2L588.6 444.5 578.4 457.2 564.5 458.8C563.2 458.9 562.4 460 562.5 461.2 562.6 462.5 563.7 463.3 565 463.2L574.5 462.1 566.6 472C565.4 472.8 565.9 474.3 566.9 475.2 568 476 569.3 475.9 570.1 474.8L577.4 465.7 578.5 475.2C578.6 476.4 579.7 477.3 581 477.1S583.1 475.9 582.9 474.7L581.4 460.7 591.5 448 595.2 481C595.3 482.3 596.4 483.1 597.7 483 598.9 482.8 599.8 481.8 599.6 480.5L595.5 443.1 616.3 417 628.4 448.1 613.9 481.5C613.4 482.8 614.1 484 615.2 484.9 616.5 485.4 617.7 484.6 618.6 483.5L631.6 453.5 637.5 468.6 631.5 481.8C631.1 483.1 631.8 484.3 632.9 485.2 634.2 485.6 635.4 484.9 636 484.2L639.8 475.1 644.2 486.1C644.7 487 646.1 488.2 647.3 487.4 648.5 486.6 649.3 485.6 648.5 484.4L644.1 473.3 653.2 477.1C654.5 477.6 655.7 476.8 656.3 476.1 656.5 475.1 656.3 473.9 655.6 473.3 655.6 473.3 655.3 473 655.3 473L642.1 467.1 636.3 452 666.3 465.1C667.6 465.6 668.8 464.8 669.4 464.1 669.6 463.1 669.4 461.8 668.7 461.3 668.7 461.3 668.4 461 668.4 461L634 446.2 621.9 415.1 654.8 420.1 676.8 450.4C677.6 451.6 679.2 451.7 680.1 450.7 681.3 449.9 681.4 448.3 680.4 447.4L661 421 677 423.4 685.7 435C686.5 436.2 688.1 436.3 688.9 435.3 690.1 434.5 690.3 432.9 689.2 432L683.5 424 695.3 425.9C696.3 426.1 697.8 425 698 424 698.2 423 697.7 422.1 697 421.5 696.7 421.2 696.3 420.9 695.7 421L683.9 419.1 692 413.4C693.2 412.6 693.3 411 692.2 410.2 692.2 410.2 691.9 409.9 691.9 409.9 691.2 409.3 689.9 409.5 689 409.9L677.5 418.6 661.5 416.2 687.9 396.9C689.1 396.1 689.2 394.5 688.2 393.6 688.2 393.6 687.8 393.3 687.8 393.3 687.1 392.8 685.8 392.9 684.9 393.3L654.6 415.3 621.7 410.3 642.5 384.3 679.9 380.1C681.2 379.9 682 378.9 681.9 377.6 681.7 376.4 680.7 375.5 679.4 375.7L646.7 379 656.9 366.3 670.8 364.7C672.1 364.6 672.9 363.5 672.8 362.3S671.6 360.2 670.3 360.3L660.8 361.4 668.1 352.2C669 351.1 668.8 349.9 667.8 349 666.7 348.2 665.5 348.3 664.6 349.4L657.3 358.5 656.2 349C656.2 348.4 656.1 347.8 655.4 347.2S654 346.7 653.4 346.8C652.1 346.9 651.3 348 651.4 349.2L653 363.2 642.9 375.9 639.2 342.9C639.1 342.3 639 341.6 638.3 341.1 638 340.8 637 340.6 636.4 340.7 635.1 340.8 634.2 341.9 634.4 343.1L638.6 380.5 617.7 406.6 605.6 375.5 620.4 341.2C620.6 340.2 620.4 338.9 619.7 338.3 619.7 338.3 619.4 338.1 619.4 338.1 618 337.6 616.8 338.3 616.3 339L603.3 369.1 597.4 354 603.3 340.8C603.5 339.8 603.4 338.6 602.7 338 602.7 338 602.3 337.7 602.3 337.7 601 337.2 599.8 338 599.2 338.7L595.4 347.8 591 336.7C590.6 336.4 590.6 335.8 590.2 335.5 589.5 335 588.5 334.8 587.6 335.2 586.4 336 585.6 337 586.3 338.2L590.8 349.3 581.7 345.5C580.3 345 579.2 345.7 578.6 346.5 578.1 347.8 578.9 349 579.6 349.5L592.8 355.5 598.6 370.5 568.6 357.5C567.3 357 566.1 357.8 565.5 358.5 565.7 360.4 566.2 362 567.5 362.4Z" fill="rgba(255, 255, 255, 1)"></path><path d="M434.6 84.9L426.2 81.9 430.6 77.9C431.1 77.5 431.2 76.6 430.8 75.9 430.1 75.4 429.2 75.3 428.7 75.7L422.9 80.9 415.1 78.1 427.1 67.7C427.8 66.9 428 66.1 427.3 65.6 426.9 64.8 426 64.7 425.2 65.5L412 77 404.9 74.7 401.6 57.8 406.5 53.4 424.1 59.6C424.4 59.6 424.6 59.5 424.9 59.5 425.2 59.4 425.7 59 425.9 58.7 426.3 57.8 425.9 57 425 56.9L408.9 51.2 415 45.9 423.3 48.6C423.4 48.9 423.7 48.8 423.9 48.8 424.5 48.6 425 48.3 425.2 47.6 425.3 47 424.9 46.3 424.2 45.8L417.5 43.7 425.1 37C425.6 36.6 425.7 35.8 425.2 35 424.6 34.5 423.7 34.4 423.2 34.8L416.1 41.1 414.9 35.3C414.8 34.5 413.8 34.1 413.3 34.2 412.5 34.4 411.7 35.1 411.9 35.9L413.4 43.4 407.2 48.6 404.2 33.1C404 32.3 403.3 31.9 402.5 32 401.7 32.2 401.2 32.9 401.4 33.7L404.8 50.8 399.7 55.6 383.4 49.9 382.1 43.6 395.5 31.7C396.3 31.2 396.4 30.1 395.7 29.6 395.3 28.9 394.4 29 393.7 29.5L381.4 40.2 379.8 32.2 386 27C386.5 26.6 386.5 25.4 386.1 24.9S384.6 24.4 383.8 24.8L379.2 28.9 377.2 19.2C377.1 18.4 376.1 18 375.3 18.2 374.8 18.3 374 19 374.2 19.8L376.1 29.5 370 27.6C369.4 27.4 368.6 27.6 368.2 28.5 368 29.1 368.5 30.2 369.1 30.3L376.8 32.8 378.4 40.9 363 35.6C362.1 35.5 361.2 35.6 360.9 36.6 360.7 37.2 361.2 38.2 361.8 38.4L379 44.2 380.3 50.5 367.4 62 360.8 59.6 357.4 42.4C357.3 41.6 356.6 41.2 355.8 41.3 354.9 41.5 354.2 42.2 354.4 43L357.5 58.5 349.8 56 348.3 48.6C348.1 47.7 347.5 47.3 346.6 47.5 345.8 47.6 345.4 48.3 345.5 49.1L346.7 54.9 337.7 51.8C337.1 51.6 336.1 52.1 335.9 52.8 335.8 53.6 336 54.5 336.8 54.6L346.1 57.9 341 62.4C340.5 63 340.4 63.9 340.8 64.4 341.2 64.9 341.8 65.1 342.4 65 342.4 65 342.6 64.9 342.9 64.6L349.5 59 357.2 61.5 344.5 72.9C343.7 73.3 343.6 74.2 344.3 74.9 344.7 75.2 345 75.4 345.6 75.3 345.8 75.2 346.1 75.2 346.4 75.1L360.3 62.6 366.5 64.8 369.8 81.6 364.2 86.5 347.5 80.9C346.6 80.5 345.8 81 345.7 81.8 345.3 82.5 345.7 83.3 346.7 83.7L361.7 88.7 355.7 94.2 348.3 91.7C347.6 91.5 346.9 92 346.4 92.6 346.3 93.5 346.5 94.3 347.4 94.5L352.9 96.5 346.4 102.4C345.6 102.9 345.7 103.7 346.2 104.5 346.5 104.7 347.1 104.8 347.7 104.7 347.7 104.7 348 104.7 348.2 104.6L355.3 98.3 356.7 105.2C356.8 105.8 357.5 106.5 358.4 106.4 359.2 106.2 359.6 105.2 359.5 104.7L357.8 96.1 363.8 90.6 367.2 107.5C367.4 108.3 368.3 108.7 369.1 108.5S370.4 107.7 370.2 106.9L366.6 88.3 371.7 83.9 388.1 89.5 389.5 96.7 375.8 108.6C375.3 109.3 375.2 110.2 375.7 111 376 111.2 376.6 111.3 377.1 111.2 377.4 111.2 377.7 111.1 377.9 110.8L390.2 100 391.7 108 385.7 113.6C385.2 114 385.1 114.8 385.5 115.6 386.2 116.1 387 116.2 387.5 115.8L392.4 111.4 394.2 120.2C394.3 120.8 395.3 121.4 395.8 121.3 396.7 121.2 397.3 120.2 397.2 119.6L395.5 110.8 401.4 113C401.6 113 401.9 112.9 402.2 112.9 402.7 112.8 403.2 112.4 403.5 112 403.6 111.2 403.1 110.4 402.5 109.9L394.8 107.4 393.2 99.4 408.6 104.7C409.6 105.1 410.3 104.6 410.5 104 410.9 103.1 410.4 102.3 409.8 101.9L392.5 96.1 391.1 88.9 404.1 77.4 410.5 79.6 414.2 98.1C414.4 98.9 415 99.4 415.9 99.2 416.7 99.1 417.1 98.4 417 97.6L413.6 80.7 421.4 83.5 423.1 92C423.2 92.6 424.2 93.3 425 93.1 425.8 92.9 426.2 92 426.1 91.4L424.7 84.5 433.7 87.6C434 87.6 434 87.6 434.2 87.5 434.8 87.4 435.3 87 435.5 86.7 435.6 85.8 435.2 85 434.6 84.9ZM390.4 85.6L389 86.8 387.4 86.2 374.1 81.7 372.6 81.1 372.3 79.4 369.6 65.9 369.2 64.2 370.5 63.1 381 53.8 382.2 52.7 384 53.2 397 57.8 398.8 58.3 399.2 60 401.8 73.6 402.2 75.2 400.7 76.4 390.4 85.6Z" fill="rgba(255, 255, 255, 1)"></path><path d="M457.1 371.2L419.8 370.7 412.4 363.5 418.6 341.3 428.8 338.5 460.9 357.8C461.3 357.9 461.3 357.9 461.7 358 462.6 358.3 463.6 358.1 464.4 356.9 464.8 355.6 464.6 354.6 463.4 353.8L435.3 337.1 450.9 333 463.4 340.2C463.4 340.2 463.8 340.3 463.8 340.3 464.7 340.6 465.7 340.4 466.5 339.2 467.2 338.5 466.7 336.9 465.5 336.1L457.5 331.1 469.1 328.2C470.1 328 470.9 326.8 470.8 325.4S469 323.5 467.6 323.6L456.4 326.6 461 318.5C461.8 317.3 461.3 315.8 460.1 315 459.3 314.7 457.8 314.8 457 316L449.8 328.5 433.7 332.4 450.5 304.3C451.3 303.1 450.7 301.6 450 300.9 448.7 300.5 447.3 300.6 446.5 301.8L427.7 334 417.1 336.7 401.4 320.6 404.3 310.2 436.7 291.6C437.8 290.9 438.1 289.6 437.5 288.5S435.6 287.1 434.5 287.7L406 304.1 410.5 288 422.7 281.1C423.8 280.5 424.2 279.2 423.7 277.7S421.8 276.2 420.6 276.8L412.2 281.9 415.5 270.2C415.8 268.9 414.8 267.7 413.5 267.3 412.2 267 411 267.6 410.7 268.9L407.4 280.6 402.7 272.3C402.2 270.7 400.9 270.4 399.7 271.4 398.6 272.1 398.2 273.4 398.8 274.5L405.7 286.7 401.2 302.8 385.4 274C384.7 272.9 383 272.4 381.9 273S380.4 275 381 276.1L399.6 308.9 396.6 319.3 374.5 324.8 367.3 317.2 367.8 279.9C367.7 278.5 366.6 277.7 365.3 277.3 363.8 277.4 363 278.6 362.7 279.9L362.5 312.6 351.2 301 351.4 286.6C351.4 285.2 350.2 284.4 348.9 284 347.9 284.2 346.7 285.3 346.7 286.7L346.5 296 338.1 287.5C337.3 286.9 335.9 286.9 334.8 287.6 334 288.7 334 290.2 334.8 290.8L343.2 299.3 333.4 299.3C332.4 299.5 331.1 300.6 331.3 301.6 331 302.9 331.7 303.6 333 303.9 333 303.9 333.5 304.1 333.5 304.1L347.9 304.3 359.2 315.9 326.5 315.7C325.1 315.8 323.9 316.4 324 317.8 324.1 319.2 324.8 319.9 325.7 320.2 326.1 320.3 326.1 320.3 326.1 320.3L364 320.5 371.2 328.1 365.1 350.3 355.1 352.7 322.4 333.8C321.6 333.1 320.1 333.6 319.4 334.3 318.6 335.5 319.1 337.1 320.3 337.9L348.4 354.6 332.8 358.7 320.3 351.4C319.1 350.6 317.7 350.7 317.3 352 316.5 353.2 317 354.7 317.8 355.4L326.3 360.1 314.7 363C313.6 363.6 312.8 364.8 312.9 366.2 313.2 366.8 313.9 367.5 314.8 367.7 315.3 367.8 315.3 367.8 315.8 367.5L327.4 364.6 322.7 373.2C321.9 374.3 322.5 375.5 323.2 376.1 323.7 376.3 323.7 376.3 324.1 376.4 325 376.6 326 376.4 326.6 375.7L333.9 363.2 349.5 359.1 332.8 387.2C332.4 388.5 332.5 389.9 333.8 390.3 334.1 390.9 334.1 390.9 334.6 391 335.4 391.2 336.5 390.6 337.2 389.9L356.1 357.2 366.2 354.8 382.3 371 379.5 381 346.7 399.5C345.6 400.1 345.1 401.9 345.7 403S348.1 404.6 349.2 404L377.7 387.5 373.3 403.2 361 410.5C359.9 411.1 359.5 412.4 360.1 413.6 360.7 414.7 362.1 415 363.2 414.4L371.5 409.7 368.2 421.4C368 422.3 368.5 423.8 369.8 424.2 371.1 424.6 372.8 423.6 373 422.8L376.3 411 381 419.4C381.3 419.9 381.6 420.5 382 420.6 382.9 420.8 383.5 420.5 384 420.2 385.1 419.6 385.5 418.3 384.9 417.2L378.1 404.5 382.4 388.9 398.3 417.6C398.6 418.2 399.1 418.3 399.9 418.5 400.4 418.7 400.8 418.8 401.4 418.5 402.5 417.8 403 416.1 402.3 415L384.3 382.3 387 372.3 408.7 366.7 416.5 374 415.9 411.7C416.1 412.7 416.7 413.8 417.6 414.1 418 414.2 418 414.2 418.1 413.8 419.4 414.1 420.7 413.1 420.6 411.6L420.8 378.9 432.5 390.6 432.3 405.1C432.4 406.1 433.2 406.7 434.1 407 434.1 407 434.5 407.1 434.5 407.1 435.8 407.5 437 406.4 437 405L436.9 395.1 445.3 403.5C445.6 404.1 446.1 404.2 446.5 404.3 447.4 404.6 448.4 404.4 448.5 404 449.7 402.9 449.6 401.5 449 400.4L440.6 391.9 449.9 392.2C451.3 392.1 452.5 391 452.5 389.6 452.3 388.6 451.2 387.4 450.2 387.6L435.8 387.3 424.5 375.7 457.2 376C458.6 375.9 459.4 374.7 459.8 373.4 459.6 372.4 458.5 371.2 457.1 371.2ZM413.1 342.6L408.4 359.6 407.7 362.2 405.1 362.9 388.5 367.1 385.5 367.7 383.7 365.8 371.7 353.6 369.9 351.6 370.6 349 375.3 332.1 376 329.5 378.6 328.8 395.2 324.5 397.7 323.8 400 325.8 412 338.1 413.8 340 413.1 342.6Z" fill="rgba(255, 255, 255, 1)"></path><path d="M994 268.7L968 293.6 954.8 293 963.6 284.6C964.8 284 964.6 282.6 964 281.4 963.1 280.8 961.5 280.6 960.9 281.5L948.6 292.7 935.6 292.5 942.6 281.6 959 277.9C959 277.9 959.4 277.7 959.4 277.7 960.2 277.2 960.6 276 960.5 275 959.9 273.8 959.1 273.2 957.7 273.5L945.8 276.3 952.8 265.4 987.6 256.8C987.6 256.8 988.2 257 988.2 257 989 256.6 989.4 255.4 989.4 254.4 989.1 253 987.7 252.2 986.5 252.8L956 260 964.1 246.5 977.7 243.2C977.7 243.2 977.7 243.2 978.1 243 978.9 242.6 979.5 241.7 979.5 240.7 978.8 239.5 977.8 238.6 976.4 238.8L967.4 241.1 973.3 231.2C974.3 230.2 973.7 229 972.8 228.4 971.8 227.4 970.4 227.7 969.6 229.1L963.5 238.6 961.8 229.8C961.1 228.6 960.1 227.6 958.9 228.2 957.5 228.5 956.9 229.3 957.2 230.7L960.4 244.3 952.1 257.5 944.7 226.7C944.7 225.6 943.3 224.9 941.9 225.1 941.1 225.6 940.1 226.6 940.3 228L948.9 262.9 941.9 273.8 939.1 261.9C938.9 260.5 937.7 260.2 936.3 260.4 935.3 260.4 934.5 261.9 934.5 262.9L938.7 279.1 931.9 290.4 925.7 278.9 930.5 263C930.9 261.8 930.2 260.6 929 260.2 928.2 259.7 926.6 260.5 926.2 261.7L922.7 273.3 916.5 261.8 927.2 227.4C927.6 226.2 926.9 225 925.7 224.6 924.5 224.2 923.3 224.9 922.9 226.1L913.5 256.3 906.3 242.8 910.3 229.3C910.7 228.1 910 226.9 908.8 226.5 907.6 226.2 906.4 226.8 906 228L903.1 236.8 897.7 226.9C897.1 225.7 895.8 225.3 894.6 226 893.5 226.6 893.1 227.8 893.7 229L899.1 238.9 890.5 236.4C889.3 236 888.1 236.7 887.7 237.9S888 240.3 889.2 240.7L902.1 244.5 909.6 258.4 879.6 249.4C878.4 249.1 877.2 249.7 876.8 250.9 876.5 252.1 877.1 253.3 878.3 253.7L912.6 264 918.8 275.5 907.2 272C905.9 271.6 904.7 272.3 904.4 273.5 904 274.7 904.6 275.9 905.9 276.3L921.8 281 927.7 292.2 915.2 291.7 903.5 279.6C902.7 279 901.1 278.8 900.5 279.7 899.5 280.7 899.6 281.7 900.2 282.9L908.6 291.7 896 291.3 871.2 265.2C870.2 264.2 869.2 264.3 868 264.9 867 266 867.2 267.4 867.7 268.2L889.4 291.3 873.6 290.6 864.2 280.8C863.6 279.6 862.2 279.8 861 280.5 860.4 281.3 860.3 282.9 861.3 283.9L867.3 290.4 856 290.3C854.8 289.9 853.8 291 853.7 292.6 853.7 293.6 854.8 294.6 855.8 294.6L867.3 295 860.4 301.3C859.4 302.3 859.7 303.7 860.5 304.3 861.1 305.5 862.2 305.5 862.9 305 863.3 304.8 863.3 304.8 863.7 304.6L873.5 295.2 889.3 296 866.6 317.4C865.4 318.1 865.6 319.5 866.2 320.7 867.1 321.3 868.1 321.2 868.9 320.8 869.3 320.6 869.3 320.6 869.3 320.6L896 296 908.5 296.4 899.7 304.7C898.7 305.8 898.7 306.8 899.4 308 900.2 308.5 901.4 308.9 902.2 308.5 902.6 308.3 902.6 308.3 903 308.1L915.2 296.4 927.7 296.8 921.2 307.5 904.9 311.6C903.5 311.9 902.8 313.3 902.8 314.3 903.4 315.5 904.5 316.5 905.7 315.8L917.5 313.1 911.2 324.2 875.7 332.5C874.7 332.5 873.9 334 874 335 874.6 336.2 875.6 337.1 877 336.9L907.5 329.7 899.2 342.9 886 345.9C884.6 346.2 883.8 347.6 884.5 348.8 884.5 349.8 885.5 350.8 886.9 350.5L896 348.2 890 358.1C889.4 358.9 889.7 360.3 890.7 361.3 891.3 361.5 892.3 361.5 893.1 361 893.1 361 893.5 360.8 893.9 360.6L899.9 350.7 902.2 359.8C902.2 360.8 903.6 361.5 904.6 361.5 905 361.3 905 361.3 905 361.3 906.2 360.6 906.6 359.4 906.2 358.6L903.1 345.4 911.2 331.8 918.6 362.7C919.2 363.9 920.1 364.5 921.5 364.2 921.5 364.2 921.9 364 921.9 364 922.7 363.6 923.2 362.7 923 361.3L914.9 326.3 921.4 315.6 924.2 327.4C924.8 328.6 925.9 329.6 927.1 328.9 927.3 329.3 927.7 329.1 927.7 329.1 928.5 328.7 928.8 327.5 928.8 326.4L924.7 310.2 931.6 299.3 937.6 310.4 932.8 326.3C932.5 327.5 933.3 329.1 934.5 329.5 935.5 329.5 936.7 328.8 937.3 328L940.6 316 946.8 327.5 936.5 361.7C936.2 363 936.8 364.1 938 364.5 939.2 364.9 940.4 364.2 940.8 363L949.8 333.1 957.3 347 953.4 359.8C953.1 361 953.7 362.2 954.9 362.6S957.3 362.3 957.7 361.1L960.3 352.5 965.6 362.5C966.3 363.7 967.5 364 968.7 363.4 969.9 362.7 970.2 361.5 969.6 360.3L964.2 350.4 973.2 352.7C973.8 352.9 974.4 353.1 974.8 352.9 975.2 352.7 975.8 351.9 976 351.2 976.3 350 975.7 348.8 974.5 348.5L961.2 344.8 953.8 330.9 984.1 339.7C984.7 339.9 985.3 340.1 985.7 339.8 986.1 339.6 986.7 338.8 986.9 338.2 987.2 337 986.6 335.8 985.4 335.4L950.8 325.4 944.6 313.9 956.4 317.7C957 317.9 957.8 317.5 958.2 317.3 958.6 317.1 959 316.8 959.2 316.2 959.5 315 958.7 313.4 957.7 313.5L941.6 308.3 935.6 297.2 948.5 297.4 959.8 309.8C960.6 310.3 961.8 310.7 962.6 310.3 963 310.1 963 310.1 962.8 309.7 964 309 964.1 307.4 963.1 306.4L954.8 297.6 967.7 297.8 992.3 324.5C993.1 325.1 994.1 325.1 994.9 324.6 995.3 324.4 995.3 324.4 995.3 324.4 996.3 323.4 996.7 322.2 995.6 321.2L973.9 298 989.7 298.8 999.1 308.6C1000.1 309.5 1001.1 309.5 1001.9 309.1 1001.9 309.1 1002.3 308.9 1002.3 308.9 1003.3 307.8 1003.1 306.4 1002.6 305.6L996 299 1007.5 299.4C1007.9 299.2 1008.3 299 1008.7 298.8 1009.1 298.6 1009.7 297.7 1009.8 297.1 1009.6 295.7 1009 294.5 1007.6 294.8L996 294.3 1002.9 288.1C1003.9 287 1003.6 285.6 1003.2 284.8 1002.2 283.8 1000.8 284.1 999.6 284.7L989.8 294.1 974.2 293.8 997 272.3C998 271.3 998.1 269.6 997.3 269.1 996.2 268.1 995 267.7 994 268.7Z" fill="rgba(255, 255, 255, 1)"></path><path d="M184.5 193.7L188.7 156.6 196.6 150 218.1 158.3 219.9 168.7 197.6 198.7C197.4 199.2 197.4 199.2 197.2 199.6 196.9 200.4 197 201.4 198.1 202.3 199.4 202.8 200.4 202.7 201.3 201.6L220.7 175.3 223.2 191.3 214.8 203C214.8 203 214.6 203.4 214.6 203.4 214.3 204.3 214.4 205.3 215.5 206.2 216.2 206.9 217.8 206.6 218.7 205.5L224.5 198 226.2 209.8C226.3 210.8 227.4 211.8 228.8 211.8S230.9 210.2 230.9 208.8L229.1 197.4 236.7 202.8C237.8 203.7 239.3 203.3 240.2 202.2 240.6 201.4 240.6 200 239.5 199.1L227.8 190.6 225.5 174.2 251.8 193.6C252.9 194.6 254.5 194.2 255.2 193.5 255.7 192.3 255.8 190.8 254.7 189.9L224.5 168.1 222.8 157.3 240.4 143.3 250.5 147.2 265.8 181.2C266.3 182.3 267.6 182.8 268.8 182.3S270.4 180.5 269.9 179.4L256.4 149.4 271.9 155.5 277.6 168.3C278.1 169.5 279.4 170 280.9 169.6S282.6 167.9 282.1 166.7L277.8 157.8 289.2 162.2C290.4 162.7 291.8 161.7 292.2 160.5 292.7 159.2 292.2 158 291 157.5L279.6 153.1 288.4 149.3C289.9 148.9 290.4 147.7 289.5 146.3 289 145.2 287.7 144.7 286.6 145.2L273.7 150.9 258.1 144.8 288.3 131.9C289.5 131.3 290.2 129.7 289.6 128.5S287.9 126.8 286.7 127.3L252.3 142.5 242.2 138.6 238.8 116 247.1 109.6 284.2 113.8C285.6 113.9 286.5 112.8 287 111.5 287.1 110.1 286 109.2 284.7 108.7L252.2 105.3 264.8 95.2 279.2 96.8C280.6 96.9 281.5 95.8 282 94.6 281.9 93.6 281 92.2 279.5 92.2L270.3 91 279.5 83.4C280.3 82.8 280.3 81.3 279.8 80.2 278.7 79.3 277.3 79.2 276.6 79.9L267.3 87.4 268.2 77.6C268.1 76.6 267.2 75.3 266.2 75.4 264.9 74.9 264.2 75.6 263.7 76.8 263.7 76.8 263.5 77.2 263.5 77.2L261.9 91.6 249.2 101.7 252.7 69.1C252.7 67.7 252.2 66.6 250.8 66.5 249.4 66.4 248.6 67.1 248.3 67.9 248.1 68.4 248.1 68.4 248.1 68.4L244.2 106 235.9 112.5 214.4 104.2 213 94 235.1 63.3C235.8 62.6 235.5 61 234.8 60.3 233.7 59.4 232.1 59.7 231.2 60.8L211.8 87.2 209.3 71.2 217.7 59.5C218.6 58.4 218.7 56.9 217.4 56.5 216.3 55.5 214.7 55.9 214 56.6L208.5 64.6 206.7 52.8C206.2 51.6 205.1 50.7 203.7 50.7 203.1 50.9 202.4 51.6 202 52.4 201.9 52.9 201.9 52.9 202.1 53.4L203.9 65.2 195.8 59.7C194.7 58.8 193.6 59.3 192.8 60 192.7 60.4 192.7 60.4 192.5 60.8 192.2 61.7 192.3 62.7 192.9 63.4L204.7 71.8 207.2 87.8 180.8 68.4C179.6 67.9 178.2 67.8 177.7 69.1 177.1 69.4 177.1 69.4 176.9 69.8 176.6 70.6 177.1 71.8 177.8 72.5L208.4 94.6 209.8 104.8 192.1 119.2 182.4 115.5 167.2 81C166.7 79.9 165 79.2 163.9 79.7S162.1 81.9 162.6 83.1L176.1 113 161 107.2 154.9 94.2C154.4 93 153.1 92.5 152 93 150.8 93.5 150.3 94.8 150.8 96L154.7 104.7 143.3 100.3C142.5 100 140.9 100.3 140.4 101.6 139.9 102.9 140.7 104.6 141.5 104.9L152.9 109.3 144.1 113.2C143.5 113.5 143 113.7 142.8 114.1 142.5 115 142.7 115.6 143 116.1 143.5 117.3 144.8 117.8 145.9 117.3L159.2 111.8 174.3 117.7 144.1 130.6C143.6 130.9 143.4 131.3 143.1 132.1 142.9 132.6 142.8 133 143 133.6 143.5 134.7 145.2 135.4 146.4 134.9L180.6 120.1 190.3 123.8 193.8 146 185.8 153.1 148.3 148.7C147.3 148.8 146.1 149.3 145.8 150.1 145.6 150.5 145.6 150.5 146 150.7 145.6 152 146.5 153.3 147.9 153.4L180.5 156.8 167.7 167.3 153.3 165.6C152.3 165.7 151.6 166.4 151.2 167.2 151.2 167.2 151.1 167.7 151.1 167.7 150.6 168.9 151.5 170.3 153 170.3L162.8 171.2 153.5 178.8C153 179 152.8 179.5 152.6 179.9 152.3 180.7 152.4 181.7 152.8 181.9 153.8 183.2 155.2 183.3 156.4 182.8L165.6 175.2 164.4 184.4C164.3 185.9 165.3 187.2 166.7 187.3 167.7 187.2 169 186.2 168.9 185.2L170.6 170.9 183.3 160.8 179.8 193.3C179.8 194.8 180.9 195.7 182.1 196.1 183.1 196.1 184.5 195.1 184.5 193.7ZM217.4 152.7L200.9 146.4 198.4 145.4 198 142.8 195.4 125.8 195.1 122.8 197.2 121.2 210.5 110.4 212.6 108.8 215.1 109.8 231.5 116.1 234.1 117.1 234.5 119.7 237.1 136.7 237.6 139.3 235.3 141.3 222 152.1 219.9 153.7 217.4 152.7Z" fill="rgba(255, 255, 255, 1)"></path><path d="M218.7 400.1L201.2 393.3 194.7 378 211.2 379.9 222.7 394.7C222.7 394.7 222.9 394.8 222.9 394.8 223.2 395.1 223.9 395 224.3 394.8 224.9 394.4 225 393.6 224.4 393.2L214.3 380.3 222.4 381.2 226.9 386.8C226.9 386.8 227.1 387 227.1 387 227.4 387.2 228.1 387.2 228.5 386.9 229.1 386.5 229.1 385.7 228.6 385.3L225.6 381.4 231.5 382.1C232 382.2 232.7 381.6 232.8 381.1 233.1 380.5 232.3 379.9 231.8 379.8L225.9 379.1 229.9 376.1C230.4 375.7 230.5 374.9 229.9 374.5 229.5 373.9 228.7 373.8 228.3 374.4L222.7 378.9 214.8 377.8 227.7 367.7C228.3 367.3 228.3 366.5 227.8 366.1 227.4 365.5 226.5 365.5 226.1 366L211.4 377.5 194.8 375.5 204.9 362 223.6 359.3C224.2 359.2 224.6 358.6 224.5 358 224.4 357.4 223.9 357 223.2 357.1L206.8 359.4 211.7 352.9 218.6 351.9C219.3 351.8 219.7 351.3 219.6 350.7 219.5 350 218.9 349.6 218.3 349.7L213.6 350.4 217.4 345.3C217.9 344.9 217.7 344.2 217.1 343.8 216.6 343.4 216 343.5 215.6 344L212 348.7 211.4 344C211.3 343.3 210.7 342.9 210.1 343S209.1 343.6 209.1 344.3L210.1 351.2 205.3 357.7 202.9 341.3C202.8 340.7 202.3 340.3 201.7 340.4 201 340.5 200.6 341 200.7 341.6L203.4 360.3 193.4 373.6 186.8 358.3 193.6 341.4C193.8 340.7 193.4 340.1 192.9 339.7 192.2 339.5 191.6 339.9 191.2 340.4L185.2 355.6 182 348.2 184.7 341.5C185 340.8 184.6 340.3 184 339.8 183.3 339.6 182.8 340 182.5 340.4L180.7 345 178.3 339.5C178.1 339.1 177.4 338.5 176.8 339 176.2 339.4 175.8 339.9 176.2 340.5L178.6 345.9 174 344.2C173.3 344 172.7 344.4 172.5 344.7 172.4 345.2 172.5 345.9 172.8 346.1 172.8 346.1 173 346.3 173 346.3L179.7 349 182.9 356.4 167.7 350.4C167 350.2 166.4 350.6 166.1 351 166 351.5 166.1 352.1 166.5 352.4 166.5 352.4 166.7 352.5 166.7 352.5L184.1 359.3 190.6 374.7 174.1 372.7 162.6 357.9C162.2 357.3 161.4 357.3 161 357.8 160.4 358.2 160.4 359.1 160.9 359.5L171 372.3 162.9 371.4 158.4 365.8C158 365.2 157.2 365.1 156.8 365.7 156.2 366.1 156.2 366.9 156.7 367.3L159.7 371.2 153.8 370.5C153.3 370.4 152.6 371 152.5 371.5 152.4 372 152.6 372.4 153 372.7 153.2 372.8 153.3 373 153.7 372.9L159.6 373.7 155.6 376.7C155.1 377.1 155 377.9 155.6 378.3 155.6 378.3 155.7 378.4 155.7 378.4 156.1 378.7 156.7 378.6 157.2 378.4L162.8 373.8 170.8 374.8 158 384.9C157.4 385.3 157.3 386.1 157.9 386.5 157.9 386.5 158.1 386.6 158.1 386.6 158.4 386.9 159 386.8 159.5 386.6L174.3 375.1 190.8 377.1 180.8 390.4 162.2 393.1C161.6 393.2 161.2 393.7 161.3 394.4 161.4 395 161.9 395.4 162.5 395.3L178.8 393.1 173.9 399.6 167 400.6C166.4 400.7 166 401.3 166.1 401.9S166.7 402.9 167.3 402.8L172.1 402.2 168.5 406.9C168.1 407.4 168.2 408 168.8 408.4 169.3 408.8 169.9 408.8 170.4 408.2L173.9 403.5 174.5 408.2C174.6 408.6 174.6 408.9 175 409.1S175.7 409.4 176 409.3C176.6 409.2 177 408.7 176.9 408.1L175.9 401.1 180.8 394.6 183.2 411C183.2 411.3 183.3 411.7 183.6 411.9 183.8 412.1 184.3 412.2 184.6 412.1 185.2 412 185.6 411.5 185.6 410.8L182.9 392.2 192.9 378.9 199.4 394.2 192.6 411.6C192.5 412.1 192.6 412.7 193 413 193 413 193.1 413.1 193.1 413.1 193.8 413.4 194.4 413 194.7 412.6L200.7 397.4 203.9 404.8 201.1 411.5C201 412 201.1 412.6 201.5 412.9 201.5 412.9 201.7 413 201.7 413 202.3 413.3 202.9 412.9 203.2 412.5L205 407.9 207.3 413.3C207.5 413.5 207.6 413.8 207.8 413.9 208.1 414.2 208.6 414.3 209.1 414.1 209.7 413.7 210.1 413.1 209.6 412.5L207.3 407.1 211.9 408.8C212.5 409.1 213.1 408.6 213.4 408.3 213.6 407.6 213.2 407 212.8 406.8L206.2 404 203 396.6 218.2 402.6C218.9 402.8 219.5 402.4 219.7 402 219.6 401.1 219.3 400.3 218.7 400.1Z" fill="rgba(255, 255, 255, 1)"></path><path d="M753.9 87L770.7 103.1 771 109.5 758.7 117 752.9 114 746.4 91.5C746.3 91.3 746.3 91.3 746.1 91 745.8 90.5 745.3 90.2 744.4 90.4 743.7 90.9 743.4 91.4 743.6 92.3L749.3 111.9 740.4 107.1 737.8 98.4C737.8 98.4 737.6 98.2 737.6 98.2 737.3 97.7 736.8 97.4 735.9 97.6 735.3 97.6 734.9 98.6 735.1 99.4L736.6 105.1 730.1 101.5C729.5 101.2 728.7 101.4 728.1 102.1S728.1 103.7 728.8 104.3L735.1 107.7 729.6 109.4C728.7 109.6 728.3 110.5 728.5 111.4 728.8 111.9 729.5 112.4 730.3 112.2L739 109.6 748 114.7 728.4 120.4C727.5 120.6 727.1 121.5 727.1 122.1 727.6 122.9 728.3 123.4 729.1 123.2L751.5 116.5 757.4 119.8 757.7 133.8 752 137.4 729.2 132.1C728.5 131.9 727.7 132.3 727.6 133.1S727.8 134.6 728.6 134.8L748.6 139.4 739.7 144.9 731.2 142.8C730.4 142.6 729.7 143 729.2 144S729.5 145.5 730.3 145.7L736.3 146.9 729.8 150.9C729.1 151.3 729.1 152.3 729.5 153.1 729.9 153.8 730.7 154 731.4 153.5L737.9 149.6 736.5 155.4C736.1 156.3 736.5 157 737.6 157.1 738.3 157.2 739.1 156.8 739.2 156L741.3 147.5 750.2 142.1 745.2 162C745 162.7 745.6 163.7 746.4 163.9S747.9 163.6 748.1 162.9L753.6 140 759.4 136.5 771.8 143.4 771.9 150 755.7 166.8C755.2 167.5 755.4 168.3 755.8 169 756.5 169.6 757.3 169.4 758.1 169L772.1 154.1 772.3 164.2 766.1 170.7C765.5 171.4 765.7 172.3 766.1 173 766.7 173.3 767.7 173.4 768.2 172.7L772.3 168.5 772.6 176C772.6 176.6 773.3 177.2 774.1 177.4 775 177.2 775.5 176.5 775.5 175.9L775.2 168.4 779.8 172.6C780.3 172.9 781.3 173 781.6 172.4 782.4 172 782.3 171.4 781.9 170.6 781.9 170.6 781.7 170.4 781.7 170.4L775.2 164.1 775 154 789.9 168.1C790.6 168.6 791.3 168.8 791.9 168.1 792.5 167.4 792.4 166.8 792.1 166.3 792 166.1 792 166.1 792 166.1L774.8 149.8 774.7 143.3 787 135.8 792.6 139 799.4 161.5C799.5 162.2 800.4 162.6 801 162.5 801.9 162.3 802.3 161.4 802.1 160.6L796.4 140.9 805.3 145.7 807.9 154.4C808.1 155.2 808.8 155.8 809.5 155.4 810.4 155.2 810.8 154.2 810.8 153.6L808.9 147.8 815.4 151.5C816.2 151.6 817.1 151.4 817.6 150.8 817.7 150.4 817.7 149.7 817.4 149.3 817.2 149 817.2 149 816.8 148.9L810.3 145.3 816.1 143.4C817 143.2 817.2 142.4 817.1 141.8 817 141.6 817 141.6 816.8 141.3 816.5 140.9 816 140.5 815.4 140.6L806.7 143.2 797.9 138.4 817.5 132.7C818.2 132.2 818.8 131.6 818.3 130.8 818.4 130.4 818.4 130.4 818.3 130.2 818 129.7 817.2 129.5 816.6 129.6L794 136.4 788.4 133.2 788 119 793.5 115.6 816.4 121.1C817.2 121.3 818.1 120.7 818.3 120S817.9 118.2 817.1 118L797.1 113.4 805.8 108.1 814.6 110C815.3 110.2 816.1 109.8 816.2 109 816.4 108.2 816 107.5 815.2 107.3L809.4 105.9 815.9 101.9C816.4 101.6 816.8 100.7 816.4 100 815.9 99.3 814.8 99 814.3 99.3L807.8 103.3 809.2 97.4C809.3 97.1 809.4 96.7 809.2 96.4 808.9 95.9 808.5 95.9 808.2 95.8 807.4 95.6 806.7 96 806.5 96.8L804.2 105.5 795.5 110.8 800.5 90.8C800.6 90.5 800.5 90.2 800.2 89.7 800 89.5 799.9 89.2 799.5 89.2 798.7 89 797.8 89.6 797.6 90.3L791.9 113 786.4 116.3 774 109.7 773.6 103 790 86C790.3 85.5 790.5 84.7 790.2 84.2 790.1 84 790.1 84 789.8 84.2 789.4 83.4 788.4 83.4 787.8 84.1L773.8 98.9 773.4 88.6 779.7 82.1C780 81.6 779.9 80.9 779.7 80.5 779.7 80.5 779.5 80.2 779.5 80.2 779.1 79.5 778 79.5 777.5 80.1L773.3 84.7 773 77.2C773.1 76.8 773 76.6 772.8 76.4 772.6 75.9 772 75.5 771.8 75.7 770.8 75.7 770.2 76.3 770 77.1L770.3 84.6 766.1 80.5C765.4 79.9 764.4 79.9 763.8 80.5 763.5 81.1 763.5 82.1 764 82.4L770.5 88.7 770.7 98.8 755.8 84.8C755.2 84.2 754.3 84.4 753.6 84.8 753.2 85.4 753.2 86.4 753.9 87ZM761.8 118.8L771.2 113.1 772.6 112.2 774.1 113 783.5 118.1 785.1 119.1 785.1 120.7 785.4 131.5 785.4 133.1 783.9 134 774.6 139.7 773.1 140.6 771.7 139.9 762.2 134.7 760.8 133.9 760.6 132.1 760.3 121.3 760.3 119.7 761.8 118.8Z" fill="rgba(255, 255, 255, 1)"></path><path d="M494.4 97.1L502 80 517.6 74.1 514.9 90.5 499.7 101.4C499.7 101.4 499.5 101.5 499.5 101.5 499.2 101.9 499.3 102.5 499.5 103 499.9 103.6 500.7 103.7 501.1 103.1L514.4 93.6 513.1 101.6 507.3 105.9C507.3 105.9 507.2 106.1 507.2 106.1 506.9 106.4 507 107 507.2 107.5 507.5 108.1 508.4 108.2 508.8 107.7L512.8 104.9 511.8 110.7C511.7 111.2 512.3 112 512.8 112.1 513.4 112.3 514 111.6 514.1 111.1L515.1 105.3 517.9 109.3C518.3 109.9 519.1 110 519.5 109.5 520.1 109.1 520.2 108.3 519.7 107.9L515.4 102 516.9 94.2 526.4 107.5C526.8 108.1 527.6 108.2 528 107.7 528.6 107.3 528.7 106.5 528.2 106L517.4 90.8 520 74.3 533.1 85 535 103.8C535.1 104.4 535.6 104.8 536.2 104.8 536.9 104.7 537.3 104.2 537.2 103.5L535.6 87 541.9 92.2 542.6 99.2C542.6 99.8 543.1 100.2 543.8 100.2 544.4 100.1 544.8 99.6 544.8 98.9L544.3 94.2 549.2 98.2C549.6 98.8 550.3 98.5 550.8 98 551.2 97.5 551.1 96.9 550.6 96.4L546.1 92.7 550.8 92.2C551.5 92.2 551.9 91.6 551.8 91S551.3 89.9 550.6 90L543.6 90.7 537.3 85.6 553.9 83.9C554.5 83.9 554.9 83.3 554.9 82.7 554.8 82.1 554.3 81.6 553.6 81.7L534.9 83.6 522 73 537.6 67.1 554.2 74.6C554.9 74.8 555.5 74.5 555.9 73.9 556.2 73.3 555.8 72.7 555.3 72.2L540.3 65.6 547.9 62.7 554.4 65.7C555.1 66 555.7 65.6 556.1 65.1 556.4 64.4 556 63.8 555.7 63.5L551.1 61.6 556.7 59.4C557.2 59.2 557.7 58.5 557.3 57.9 557 57.3 556.4 56.9 555.8 57.3L550.3 59.4 552.2 54.9C552.5 54.2 552.1 53.6 551.8 53.4 551.3 53.2 550.6 53.3 550.3 53.7 550.3 53.7 550.2 53.8 550.2 53.8L547.2 60.4 539.6 63.2 546.3 48.3C546.5 47.6 546.2 47 545.8 46.7 545.3 46.6 544.7 46.7 544.4 47 544.4 47 544.3 47.2 544.3 47.2L536.7 64.3 521.1 70.2 523.7 53.7 539 42.9C539.6 42.5 539.7 41.7 539.2 41.3 538.8 40.7 538 40.6 537.6 41.1L524.2 50.7 525.5 42.7 531.4 38.4C532 38 532 37.2 531.5 36.8 531.1 36.2 530.3 36.1 529.9 36.6L525.8 39.4 526.9 33.6C527 33.1 526.4 32.3 525.9 32.2 525.4 32.1 525 32.3 524.7 32.7 524.5 32.8 524.4 33 524.4 33.3L523.4 39.2 520.6 35.2C520.2 34.5 519.4 34.5 519 35 519 35 518.8 35.2 518.8 35.2 518.6 35.5 518.6 36.1 518.8 36.6L523.1 42.4 521.8 50.4 512.3 37.1C511.9 36.5 511.1 36.4 510.7 36.9 510.7 36.9 510.5 37.1 510.5 37.1 510.3 37.5 510.3 38.1 510.5 38.6L521.4 53.8 518.7 70.3 505.8 59.7 503.9 41C503.8 40.4 503.3 39.9 502.7 40 502 40.1 501.6 40.6 501.7 41.2L503.1 57.6 496.8 52.4 496.2 45.4C496.1 44.8 495.6 44.4 494.9 44.4S493.9 45 493.9 45.7L494.4 50.4 489.9 46.7C489.3 46.3 488.7 46.4 488.3 46.9 487.9 47.4 487.9 48 488.4 48.5L493 52.2 488.2 52.7C487.9 52.7 487.6 52.7 487.3 53.1S487 53.7 487.1 54.1C487.1 54.7 487.7 55.1 488.3 55.1L495.3 54.4 501.6 59.5 485.1 61.1C484.7 61.2 484.4 61.2 484.1 61.6 484 61.7 483.9 62.2 483.9 62.5 484 63.2 484.5 63.6 485.1 63.5L503.9 61.7 516.8 72.2 501.2 78.1 484.1 70.5C483.6 70.4 482.9 70.5 482.7 70.8 482.7 70.8 482.5 71 482.5 71 482.3 71.7 482.6 72.3 483 72.6L497.9 79.3 490.4 82.1 483.8 79.1C483.3 79 482.7 79 482.4 79.4 482.4 79.4 482.2 79.5 482.2 79.5 482 80.2 482.4 80.8 482.7 81.1L487.2 83 481.7 85.2C481.6 85.4 481.2 85.4 481.1 85.6 480.8 85.9 480.7 86.4 480.9 86.9 481.3 87.5 481.8 87.9 482.4 87.5L488 85.4 486 89.9C485.8 90.6 486.1 91.2 486.5 91.5 487.2 91.7 487.8 91.3 488 91L491.1 84.4 498.6 81.6 492 96.5C491.7 97.2 492.1 97.8 492.4 98.1 493.4 98 494.2 97.7 494.4 97.1Z" fill="rgba(255, 255, 255, 1)"></path><path d="M728 526.6L731.7 518.5 735.3 523.2C735.7 523.7 736.5 523.9 737.3 523.5 737.8 522.9 738 522 737.7 521.5L733 515.2 736.5 507.8 745.8 520.6C746.5 521.4 747.3 521.6 747.8 521 748.7 520.6 748.8 519.7 748.2 518.9L737.8 504.8 740.8 497.9 757.9 496 761.8 501.3 754.1 518.3C754.1 518.6 754.1 518.9 754.2 519.1 754.2 519.4 754.5 519.9 754.9 520.2 755.8 520.7 756.6 520.3 756.8 519.4L763.8 503.9 768.5 510.5 765.2 518.5C764.9 518.5 764.9 518.8 764.9 519.1 765 519.6 765.3 520.2 765.9 520.4 766.5 520.6 767.3 520.2 767.8 519.6L770.5 513.1 776.5 521.2C776.9 521.7 777.7 521.9 778.5 521.5 779 520.9 779.2 520.1 778.9 519.5L773.2 511.9 779.1 511.3C780 511.2 780.4 510.3 780.4 509.7 780.3 508.9 779.6 508.1 778.8 508.2L771.2 509 766.5 502.5 782.2 500.7C783 500.6 783.5 500 783.4 499.2 783.4 498.3 782.7 497.8 781.9 497.9L764.5 499.8 760.2 494.4 767.3 478.5 773.7 477.8 784.4 492.3C784.8 493.1 785.9 493.2 786.4 492.6 787.2 492.2 787.1 491.4 786.8 490.6L777.1 477.5 785.2 476.6 789.9 483.1C790.2 483.7 791.4 483.8 791.9 483.5S792.6 482 792.2 481.2L788.6 476.2 798.4 475.1C799.2 475 799.7 474.1 799.6 473.3 799.5 472.7 798.9 471.9 798 472L788.2 473.1 790.7 467.2C790.9 466.6 790.8 465.7 789.9 465.3 789.3 465 788.2 465.4 788 466L784.9 473.5 776.7 474.4 783.3 459.5C783.5 458.6 783.4 457.8 782.5 457.3 781.9 457.1 780.8 457.5 780.6 458.1L773.4 474.7 766.9 475.5 756.6 461.6 759.6 455.3 777 453.4C777.8 453.3 778.3 452.6 778.2 451.8 778.1 451 777.5 450.2 776.6 450.3L760.9 452 764.1 444.6 771.7 443.7C772.5 443.6 773 443 772.9 442.2 772.8 441.3 772.2 440.8 771.3 440.9L765.5 441.6 769.3 432.9C769.5 432.3 769.1 431.2 768.6 431 767.7 430.8 766.8 430.9 766.7 431.8L762.5 440.8 758.5 435.3C757.9 434.8 757 434.6 756.5 434.9 756 435.3 755.8 435.8 755.8 436.4 755.8 436.4 755.8 436.7 756.2 436.9L761.2 444 758 451.5 747.7 437.9C747.4 437.1 746.5 436.9 745.7 437.5 745.5 437.8 745.2 438.1 745.3 438.7 745.3 439 745.3 439.3 745.4 439.5L756.7 454.5 753.9 460.4 736.8 462.3 732.5 456.3 739.5 440.2C740 439.3 739.6 438.5 738.7 438.3 738.1 437.8 737.3 438.2 736.8 439.1L730.5 453.7 725.5 447.1 728.7 440C728.9 439.4 728.5 438.6 727.9 438.1 727 437.9 726.2 438 726 438.8L723.5 444.2 718.2 437.2C717.8 436.3 717 436.4 716.1 436.8 715.9 437.1 715.7 437.7 715.7 438.3 715.7 438.3 715.8 438.6 715.8 438.8L721.5 446.4 714.5 447.2C713.9 447.3 713.1 447.9 713.2 448.8 713.3 449.6 714.2 450.1 714.8 450L723.5 449.1 728.4 455.6 711.3 457.5C710.5 457.6 710 458.5 710.1 459.3S710.8 460.7 711.7 460.6L730.5 458.5 734.5 464 727.4 479.8 720.1 480.6 709.4 465.9C708.8 465.4 707.9 465.2 707.1 465.6 706.9 465.9 706.7 466.5 706.7 467.1 706.8 467.4 706.8 467.6 707.1 467.9L716.8 481 708.6 481.9 703.7 475.4C703.3 474.8 702.5 474.6 701.6 475 701.1 475.6 701 476.5 701.3 477L705.3 482.3 696.3 483.3C695.7 483.3 695 484.2 695.1 484.8 695.2 485.7 696.1 486.4 696.7 486.3L705.6 485.3 702.8 491C702.9 491.3 702.9 491.6 702.9 491.9 703 492.4 703.3 493 703.7 493.2 704.5 493.4 705.3 493 705.8 492.4L709 485 717.1 484.1 710.5 499C710.1 499.9 710.4 500.7 711 500.9 711.9 501.4 712.7 501 713.2 500.4L720.5 483.7 727.8 482.9 738.1 496.8 735.4 503.1 716.6 505.1C715.8 505.2 715.3 505.8 715.3 506.7 715.4 507.5 716.1 508 716.9 507.9L734 506 730.6 513.5 721.9 514.5C721.3 514.5 720.6 515.5 720.7 516.3 720.8 517.1 721.7 517.6 722.2 517.6L729.2 516.8 725.4 525.4C725.4 525.7 725.4 525.7 725.4 526 725.5 526.6 725.8 527.1 726.1 527.3 727 527.5 727.8 527.1 728 526.6ZM731.1 482.5L730.1 480.9 730.8 479.4 736.5 466.6 737.1 465.1 738.8 464.9 752.6 463.4 754.2 463.2 755.2 464.6 763.6 475.8 764.6 477.1 763.9 478.9 758.2 491.5 757.5 493.2 755.9 493.4 742.1 494.9 740.5 495.1 739.4 493.5 731.1 482.5Z" fill="rgba(255, 255, 255, 1)"></path><path d="M38.8 319.5L40.9 311.9 44.4 315.2C44.7 315.6 45.4 315.6 46 315.2 46.3 314.7 46.4 313.9 45.8 313.6L41.6 309.4 43.1 303.4 51.8 312.3C52.3 312.6 53 312.6 53.4 312.3 53.9 311.7 54 311 53.4 310.6L43.8 300.9 46.2 291.8 53 300.3 54.5 289.6 61.2 296.2 57.8 309.5C57.6 309.5 57.6 309.7 57.7 310 57.8 310.4 58.1 310.8 58.6 310.9 59.1 311 59.7 310.6 60 310L63.1 298 67.3 302.5 65.9 308.2C65.7 308.5 65.8 308.7 65.8 308.9 65.9 309.2 66.2 309.5 66.7 309.6 67.2 309.7 67.8 309.3 67.9 308.8L69.2 304.3 74.9 309.8C75.3 310.3 76 310.2 76.6 309.8 76.9 309.4 77 308.7 76.4 308.2L70.9 302.7 75.5 301.4C76.1 301.3 76.4 300.5 76.3 300 76.1 299.4 75.5 299.1 74.9 299.2L69 300.8 64.8 296.4 76.5 293.2C77.2 293 77.5 292.5 77.3 291.8 77.2 291.4 76.6 290.8 75.9 291L62.9 294.5 56.2 287.9 66.7 286.3 58.4 279.6 67.5 277.2 77.1 286.7C77.7 287.3 78.4 287.1 78.8 286.8 79.1 286.4 79.2 285.7 78.8 285.1L69.9 276.5 75.8 274.9 80.2 279.1C80.6 279.7 81.3 279.8 81.8 279.1 82.2 278.8 82.3 278.1 81.6 277.6L78.4 274.2 86 272.2C86.7 272 87 271.4 86.8 270.8S86.1 269.8 85.4 270L77.8 272.1 78.9 267.5C79.2 266.8 78.8 266.2 78.3 266.1 77.5 265.8 77 266.2 76.9 266.9L75.2 272.8 69.3 274.3 72.7 262.5C72.7 261.8 72.3 261.2 71.8 261.1 71.1 260.8 70.5 261.2 70.4 261.9L66.9 275 57.8 277.5 61.7 267.5 51.7 271.4 54.2 262.3 67.2 258.8C67.9 258.6 68.2 257.8 68 257.4 67.9 256.8 67.3 256.4 66.7 256.6L54.7 259.8 56.3 253.8 62.2 252.2C62.8 252 63.2 251.5 63 250.8 62.9 250.4 62.3 249.9 61.6 250L57 251.3 59 243.7C59.2 243 58.8 242.4 58.1 242.3 57.6 242.2 57 242.4 56.9 243.1L54.8 250.7 51.3 247.4C51 247.1 50.3 247 49.9 247.4 49.5 247.7 49.4 248.2 49.5 248.4 49.5 248.6 49.6 248.8 49.9 249L54.1 253.2 52.6 259.2 43.9 250.4C43.4 250 42.7 250 42.3 250.3 41.9 250.7 41.8 251.2 41.9 251.6 42 251.8 42 251.8 42.3 252L51.9 261.8 49.5 270.8 42.7 262.4 41.2 273.1 34.5 266.5 37.9 253.2C38 252.7 37.8 252 37.1 251.7 36.6 251.6 36 252 35.7 252.6L32.6 264.6 28.4 260.2 29.8 254.4C30.2 253.8 29.8 253.3 29 253 28.5 252.9 27.9 253.3 27.6 253.8L26.5 258.3 20.8 252.9C20.4 252.3 19.7 252.5 19.1 252.8 19 253.1 18.9 253.6 18.9 253.8 19 254.1 19.1 254.3 19.3 254.4L24.8 260 20.2 261.2C19.6 261.4 19.3 262.1 19.4 262.6L19.4 262.6C19.6 263.2 20.2 263.6 20.8 263.4L26.7 261.8 30.9 266.3 19.2 269.4C18.5 269.6 18.2 270.2 18.4 270.8S19.1 271.8 19.8 271.6L32.8 268.1 39.5 274.7 29 276.4 37.3 283 28.2 285.5 18.6 275.9C18 275.4 17.3 275.5 16.9 275.9 16.6 276.2 16.5 276.9 16.9 277.5L25.6 286.2 19.9 287.7 15.5 283.5C15.1 282.9 14.4 282.9 13.9 283.5 13.5 283.8 13.4 284.5 13.8 285.1L17.3 288.4 9.7 290.4C9 290.6 8.7 291.2 8.9 291.8S9.6 292.8 10.3 292.6L17.9 290.6 16.8 295.1C16.6 295.4 16.7 295.6 16.7 295.8 16.8 296.2 17.1 296.4 17.4 296.5 18.2 296.8 18.7 296.4 18.8 295.7L20.5 289.9 26.4 288.3 23 300.2C23.1 300.4 23.1 300.6 23.2 300.8 23.3 301.2 23.6 301.4 23.9 301.6 24.6 301.8 25.2 301.4 25.3 300.7L28.8 287.6 37.9 285.2 34 295.1 44 291.2 41.5 300.3 28.5 303.8C27.8 304 27.5 304.8 27.7 305.2 27.8 305.9 28.4 306.2 29 306L40.8 302.8 39.4 308.8 33.5 310.4C32.9 310.6 32.5 311.1 32.7 311.8S33.4 312.8 34.1 312.6L38.7 311.4 36.7 318.9C36.6 319.2 36.6 319.4 36.7 319.6 36.7 319.8 37.1 320.2 37.6 320.3 38.1 320.4 38.7 320.2 38.8 319.5ZM37.9 291.2L41.1 283.1 34.3 277.7 43 276.3 44.2 267.8 49.7 274.5 57.8 271.4 54.6 279.5 61.4 284.9 52.9 286.3 51.5 294.8 46.2 288.1 37.9 291.2Z" fill="rgba(255, 255, 255, 1)"></path></g><defs><mask id="SvgjsMask1997"><rect width="1015" height="525" fill="#ffffff"></rect></mask><filter id="SvgjsFilter1998"><feGaussianBlur stdDeviation="1"></feGaussianBlur></filter></defs></svg>