<svg xmlns="http://www.w3.org/2000/svg" version="1.1" xmlns:xlink="http://www.w3.org/1999/xlink" xmlns:svgjs="http://svgjs.dev/svgjs" width="767" height="525" preserveAspectRatio="none" viewBox="0 0 767 525"><g mask="url(&quot;#SvgjsMask2003&quot;)" fill="none"><circle r="6.495" cx="519.195" cy="375.265" filter="url(#SvgjsFilter2004)" fill="rgba(255, 255, 255, 1)"></circle><circle r="6.725" cx="603.1650000000001" cy="360.07500000000005" filter="url(#SvgjsFilter2004)" fill="rgba(255, 255, 255, 1)"></circle><circle r="8.6" cx="370.51000000000005" cy="263.73" filter="url(#SvgjsFilter2004)" fill="rgba(255, 255, 255, 1)"></circle><circle r="5.935" cx="672.035" cy="130.995" filter="url(#SvgjsFilter2004)" fill="rgba(255, 255, 255, 1)"></circle><circle r="5.705" cx="663.1550000000001" cy="283.84499999999997" filter="url(#SvgjsFilter2004)" fill="rgba(255, 255, 255, 1)"></circle><circle r="7.885" cx="376.025" cy="179.48499999999999" filter="url(#SvgjsFilter2004)" fill="rgba(255, 255, 255, 1)"></circle><circle r="8.025" cx="566.395" cy="374.935" filter="url(#SvgjsFilter2004)" fill="rgba(255, 255, 255, 1)"></circle><circle r="6.21" cx="748.32" cy="360.47999999999996" filter="url(#SvgjsFilter2004)" fill="rgba(255, 255, 255, 1)"></circle><circle r="8.63" cx="507.88" cy="272.65" filter="url(#SvgjsFilter2004)" fill="rgba(255, 255, 255, 1)"></circle><circle r="6.435" cx="477.805" cy="474.045" filter="url(#SvgjsFilter2004)" fill="rgba(255, 255, 255, 1)"></circle><circle r="6.525" cx="704.0849999999999" cy="223.57500000000002" filter="url(#SvgjsFilter2004)" fill="rgba(255, 255, 255, 1)"></circle><circle r="4.5" cx="659.11" cy="387.02" filter="url(#SvgjsFilter2004)" fill="rgba(255, 255, 255, 1)"></circle><circle r="7.305" cx="413.71500000000003" cy="257.835" filter="url(#SvgjsFilter2004)" fill="rgba(255, 255, 255, 1)"></circle><circle r="8.61" cx="517.86" cy="200.26999999999998" filter="url(#SvgjsFilter2004)" fill="rgba(255, 255, 255, 1)"></circle><circle r="7.075" cx="575.1550000000001" cy="304.135" filter="url(#SvgjsFilter2004)" fill="rgba(255, 255, 255, 1)"></circle><circle r="4.97" cx="404.98" cy="43.87" filter="url(#SvgjsFilter2004)" fill="rgba(255, 255, 255, 1)"></circle><circle r="8.245" cx="515.885" cy="481.955" filter="url(#SvgjsFilter2004)" fill="rgba(255, 255, 255, 1)"></circle><circle r="8.07" cx="160.62" cy="297.11" filter="url(#SvgjsFilter2004)" fill="rgba(255, 255, 255, 1)"></circle><circle r="6.935" cx="168.035" cy="201.435" filter="url(#SvgjsFilter2004)" fill="rgba(255, 255, 255, 1)"></circle><circle r="5.485" cx="134.79500000000002" cy="81.195" filter="url(#SvgjsFilter2004)" fill="rgba(255, 255, 255, 1)"></circle><path d="M743.6 8.8L736.7 21.2 724.6 24.5 727.7 12.3 740 5.2C740 5.2 740.1 5.1 740.1 5.1 740.3 4.9 740.3 4.4 740.2 4 739.9 3.5 739.3 3.4 739 3.8L728.3 10 729.8 4.1 734.5 1.3C734.5 1.3 734.6 1.2 734.6 1.2 734.9 0.9 734.9 0.4 734.7 0.1 734.5-0.4 733.9-0.5 733.5-0.2L730.3 1.7 731.5-2.7C731.6-3 731.2-3.6 730.8-3.7 730.4-4 729.9-3.5 729.8-3.1L728.6 1.2 726.8-2C726.5-2.5 725.9-2.6 725.6-2.3 725.1-2 725-1.4 725.3-1L728.1 3.6 726.5 9.4 720.3-1.2C720-1.7 719.4-1.8 719-1.5 718.6-1.2 718.5-0.6 718.8-0.3L725.9 12 722.8 24.2 713.6 15.2 713.5 1C713.5 0.5 713.2 0.1 712.7 0.1 712.2 0.1 711.8 0.5 711.8 1L711.9 13.5 707.6 9.2 707.5 3.9C707.5 3.4 707.2 3.1 706.7 3.1 706.2 3.1 705.8 3.5 705.8 3.9L705.9 7.5 702.5 4.2C702.2 3.7 701.6 3.8 701.3 4.2 700.9 4.6 700.9 5.1 701.3 5.4L704.4 8.5 700.8 8.6C700.3 8.6 700 8.9 700 9.4S700.3 10.2 700.8 10.2L706.1 10.2 710.5 14.5 698 14.6C697.5 14.6 697.1 15 697.1 15.5 697.1 15.9 697.5 16.3 698 16.3L712.2 16.2 721.2 25 709 28.4 697.1 21.6C696.6 21.4 696.1 21.6 695.7 22 695.5 22.5 695.7 22.9 696.1 23.3L706.9 29.4 701 31 696.3 28.2C695.8 28 695.3 28.2 694.9 28.6 694.7 29.1 695 29.6 695.2 29.8L698.5 31.6 694.1 32.8C693.8 33 693.3 33.4 693.5 33.9 693.8 34.4 694.2 34.8 694.6 34.5L699 33.3 697.2 36.5C696.9 37 697.2 37.5 697.4 37.7 697.8 37.9 698.3 37.9 698.5 37.6 698.5 37.6 698.6 37.5 698.6 37.5L701.4 32.8 707.3 31.2 701.2 41.9C701 42.4 701.2 42.9 701.5 43.1 701.8 43.3 702.3 43.3 702.5 43 702.5 43 702.7 42.9 702.7 42.9L709.5 30.5 721.7 27.2 718.5 39.4 706.3 46.5C705.8 46.7 705.7 47.3 706.1 47.7 706.3 48.2 706.9 48.3 707.3 47.9L718 41.7 716.4 47.6 711.8 50.4C711.3 50.7 711.2 51.3 711.5 51.6 711.8 52.1 712.4 52.2 712.7 51.8L716 50 714.8 54.4C714.7 54.7 715.1 55.3 715.4 55.4 715.8 55.6 716.1 55.4 716.4 55.2 716.5 55.1 716.6 54.9 716.6 54.7L717.8 50.4 719.6 53.6C719.9 54.1 720.5 54.2 720.8 53.8 720.8 53.8 720.9 53.7 720.9 53.7 721.2 53.5 721.2 53 721.1 52.6L718.2 47.9 719.8 42 726 52.7C726.2 53.2 726.9 53.3 727.2 52.9 727.2 52.9 727.3 52.8 727.3 52.8 727.6 52.6 727.6 52.1 727.4 51.7L720.3 39.5 723.5 27.3 732.5 36.1 732.6 50.4C732.6 50.8 733 51.2 733.5 51.2 733.9 51.2 734.3 50.8 734.3 50.3L734.3 37.9 738.7 42.2 738.7 47.5C738.7 48 739.1 48.4 739.6 48.4S740.4 48 740.4 47.5L740.4 43.9 743.6 47C743.9 47.4 744.4 47.4 744.8 47 745.1 46.6 745.1 46.2 744.7 45.8L741.6 42.7 745.2 42.7C745.4 42.7 745.7 42.7 745.9 42.4S746.2 41.9 746.2 41.7C746.2 41.2 745.8 40.8 745.3 40.9L740 40.9 735.6 36.6 748.2 36.5C748.4 36.5 748.6 36.5 748.9 36.2 749 36.1 749.1 35.8 749.1 35.5 749.1 35 748.8 34.7 748.3 34.7L734.1 34.8 725.1 26 737.2 22.6 749.6 29.5C749.9 29.6 750.4 29.6 750.6 29.4 750.6 29.4 750.8 29.2 750.8 29.2 751 28.8 750.8 28.3 750.5 28L739.7 22 745.6 20.4 750.3 23.1C750.7 23.2 751.2 23.2 751.4 23 751.4 23 751.5 22.8 751.5 22.8 751.8 22.4 751.5 21.9 751.3 21.6L748 19.9 752.4 18.6C752.5 18.5 752.7 18.5 752.8 18.4 753.1 18.1 753.2 17.8 753.1 17.4 752.8 16.9 752.5 16.6 752 16.8L747.7 18.1 749.4 14.8C749.7 14.3 749.4 13.8 749.2 13.6 748.7 13.3 748.2 13.6 748 13.8L745.2 18.6 739.4 20.2 745.4 9.4C745.6 8.9 745.4 8.4 745.2 8.2 744.4 8.2 743.8 8.3 743.6 8.8Z" fill="rgba(255, 255, 255, 1)"></path><path d="M129.6 356.9L132.5 345.3 137.9 350.1C138.4 350.7 139.5 350.7 140.4 350.1 140.8 349.2 140.9 348.2 140 347.7L133.5 341.5 135.4 332.4 148.9 345.4C149.8 345.9 150.9 345.9 151.4 345.4 152.2 344.4 152.2 343.3 151.4 342.9L136.4 328.5 139.7 314.7 150.2 327.2 152.1 311 162.5 320.7 157.9 340.9C157.6 341 157.7 341.4 157.8 341.7 158 342.3 158.5 342.9 159.3 343 160 343.1 160.9 342.5 161.3 341.7L165.5 323.4 172.1 329.9 170.1 338.7C169.8 339.1 169.9 339.5 170 339.8 170.1 340.1 170.6 340.7 171.4 340.8 172.1 340.9 173 340.3 173.2 339.6L175 332.6 183.8 340.6C184.4 341.5 185.4 341.2 186.3 340.6 186.8 340.1 186.9 339 185.9 338.2L177.4 330.1 184.3 328C185.3 327.7 185.6 326.6 185.4 325.9 185.2 324.9 184.3 324.5 183.3 324.8L174.5 327.4 167.9 320.9 185.5 315.6C186.5 315.3 187 314.4 186.7 313.4 186.5 312.8 185.5 312 184.6 312.3L165 318.2 154.6 308.5 170.4 305.5 157.6 295.8 171.3 291.7 186.2 305.8C187.1 306.6 188.1 306.3 188.7 305.7 189.2 305.2 189.2 304.1 188.6 303.3L174.9 290.7 183.7 288 190.5 294.2C191.1 295 192.2 295.1 193 294.1 193.6 293.6 193.6 292.5 192.6 291.7L187.6 286.8 199 283.4C200 283.1 200.5 282.3 200.2 281.3S199 279.9 198.1 280.1L186.6 283.6 188.1 276.7C188.5 275.5 187.9 274.7 187.1 274.5 186 274.2 185.1 274.8 185 275.9L182.7 284.7 173.9 287.4 178.4 269.3C178.5 268.2 177.9 267.3 177.1 267.2 175.9 266.8 175 267.5 175 268.5L170.3 288.5 156.6 292.6 162 277.4 147.2 283.7 150.5 269.8 170.1 264C171.1 263.7 171.4 262.5 171.2 261.9 170.9 260.9 170.1 260.4 169.1 260.7L151.1 266.1 153.4 256.9 162.2 254.2C163.2 253.9 163.6 253.1 163.3 252.1 163.1 251.5 162.2 250.7 161.2 251L154.4 253 157 241.6C157.3 240.4 156.7 239.5 155.6 239.5 154.9 239.3 153.9 239.6 153.9 240.7L150.9 252.3 145.6 247.5C145 246.9 144 246.9 143.4 247.4 142.9 247.9 142.7 248.7 142.8 249 142.9 249.3 143 249.7 143.4 249.9L149.9 256.1 148 265.2 134.5 252.2C133.7 251.7 132.6 251.7 132.1 252.2 131.5 252.8 131.4 253.5 131.6 254.2 131.7 254.5 131.7 254.5 132.1 254.7L147.1 269.1 143.7 282.9 133.2 270.4 131.3 286.6 120.9 276.9 125.6 256.7C125.7 255.9 125.4 254.9 124.2 254.6 123.5 254.5 122.6 255.1 122.1 255.9L118 274.2 111.4 267.7 113.4 258.9C113.9 258 113.2 257.2 112.1 256.8 111.3 256.7 110.4 257.3 110 258.1L108.5 265 99.7 257C99 256.1 98.1 256.4 97.2 257 96.9 257.4 96.8 258.2 96.9 258.5 97 258.8 97.1 259.1 97.5 259.4L106 267.5 99.2 269.6C98.2 269.9 97.8 271 98 271.7L98 271.7C98.3 272.7 99.2 273.1 100.1 272.8L109 270.2 115.6 276.8 97.9 282C96.9 282.3 96.5 283.2 96.8 284.2S97.9 285.6 98.9 285.3L118.5 279.4 128.9 289.1 113 292.1 125.9 301.8 112.2 305.9 97.3 291.8C96.4 291 95.4 291.3 94.8 291.9 94.3 292.4 94.2 293.5 94.8 294.3L108.3 307.1 99.8 309.6 93 303.5C92.3 302.6 91.3 302.5 90.5 303.5 89.9 304 89.9 305.1 90.5 306L95.9 310.8 84.4 314.2C83.4 314.5 83 315.3 83.3 316.3S84.4 317.8 85.4 317.5L96.8 314 95.3 320.9C95.1 321.3 95.2 321.6 95.3 322 95.5 322.6 95.9 322.9 96.3 323.1 97.5 323.4 98.4 322.8 98.4 321.7L100.8 312.9 109.6 310.2 105 328.3C105.1 328.6 105.2 329 105.3 329.3 105.5 329.9 105.9 330.2 106.4 330.4 107.5 330.8 108.4 330.1 108.5 329.1L113.2 309.1 126.9 305 121.4 320.2 136.3 314 133 327.8 113.4 333.6C112.4 333.9 112 335.1 112.2 335.8 112.5 336.7 113.4 337.2 114.4 336.9L132 331.6 130.1 340.7 121.3 343.4C120.3 343.7 119.8 344.5 120.1 345.5S121.3 346.9 122.3 346.6L129.1 344.6 126.5 356C126.3 356.5 126.4 356.8 126.5 357.1 126.6 357.4 127.1 358 127.8 358.1 128.6 358.3 129.6 358 129.6 356.9ZM127.1 314.2L131.6 301.8 121.1 294 134.2 291.5 135.7 278.6 144.3 288.4 156.3 283.4 151.9 295.8 162.4 303.6 149.6 306.1 147.8 319 139.5 309.1 127.1 314.2Z" fill="rgba(255, 255, 255, 1)"></path><path d="M6.3 110.7L13.8 99.3 18.7 98.5 16.1 102.3C15.8 102.6 16 103.1 16.3 103.5 16.7 103.6 17.3 103.6 17.4 103.2L21 98 25.8 97 24.2 101.6 18.4 104.4C18.4 104.4 18.3 104.5 18.3 104.5 18 104.7 18 105.2 18.1 105.5 18.4 105.9 18.8 106.1 19.3 105.9L23.4 103.8 21.8 108.4 9.7 114.5C9.7 114.5 9.4 114.5 9.4 114.5 9.2 114.7 9.1 115.2 9.2 115.6 9.4 116.1 10 116.3 10.4 115.9L21 110.7 19.2 116.4 14.5 118.7C14.5 118.7 14.5 118.7 14.3 118.8 14.1 119.1 13.9 119.4 14 119.8 14.4 120.2 14.8 120.4 15.3 120.2L18.5 118.6 17.1 122.8C16.8 123.2 17.2 123.6 17.5 123.7 18 124 18.5 123.8 18.6 123.2L20.1 119.2 21.5 122.3C21.8 122.7 22.3 123 22.7 122.6 23.2 122.4 23.3 122.1 23.1 121.6L20.7 116.8 22.7 111.3 28 122C28.1 122.4 28.7 122.5 29.2 122.3 29.5 122.1 29.7 121.6 29.5 121.1L23.4 109 25.1 104.4 27.1 108.5C27.3 109 27.8 109.1 28.3 108.9 28.6 108.8 28.8 108.2 28.7 107.8L25.8 102.2 27.3 97.5 30.6 101.2 30.2 107.4C30.1 107.9 30.5 108.3 31 108.3 31.3 108.5 31.8 108 31.9 107.5L32.2 103 35.4 106.7 34.4 120.3C34.4 120.7 34.7 121.1 35.2 121.2 35.7 121.2 36.1 120.9 36.1 120.4L37 108.5 40.8 112.8 40.5 118.1C40.4 118.6 40.8 119 41.3 119 41.7 119 42.1 118.7 42.1 118.2L42.5 114.8 45.3 118C45.6 118.3 46.1 118.4 46.5 118 46.9 117.7 46.9 117.2 46.6 116.8L43.8 113.6 47.1 113.8C47.6 113.9 48 113.5 48 113.1S47.7 112.2 47.3 112.2L42.2 111.8 38.3 107.3 50.1 108.1C50.5 108.2 50.9 107.8 51 107.3 51 106.9 50.6 106.5 50.2 106.4L36.7 105.6 33.4 101.8 38 102.1C38.5 102.2 38.9 101.8 38.9 101.4 38.9 100.9 38.6 100.5 38.1 100.5L31.9 100 28.7 96.5 33.4 95.6 38.7 99C39 99.2 39.7 99.1 39.8 98.8 40.1 98.3 40 97.9 39.6 97.5L35.8 95 40.5 94.1 51.8 101.6C52.3 101.9 52.6 101.8 53 101.4 53.3 101 53.1 100.5 52.9 100.2L42.9 93.5 48.8 92.5 53.1 95.3C53.4 95.7 53.9 95.4 54.3 95.1 54.4 94.8 54.4 94.1 53.9 93.9L51.1 92 55.3 91.1C55.8 91.1 56 90.6 55.9 90 55.9 89.7 55.4 89.4 55 89.5L50.7 90.3 52.7 87.4C53 86.9 52.8 86.4 52.4 86.3 52.1 85.9 51.7 86 51.5 86.2 51.4 86.3 51.4 86.3 51.2 86.5L48.4 90.7 42.5 91.8 49.1 82C49.5 81.6 49.3 81.1 48.9 80.8 48.6 80.6 48.2 80.7 48 80.9 47.8 81 47.8 81 47.8 81L40.1 92.4 35.4 93.3 38 89.5C38.3 89 38.2 88.6 37.8 88.2 37.5 88.1 37 88.1 36.7 88.3 36.6 88.4 36.6 88.4 36.5 88.5L33 93.8 28.3 94.7 29.8 90.3 35.5 87.4C36 87.1 36.1 86.6 36 86.2 35.7 85.8 35.2 85.5 34.8 85.9L30.7 87.9 32.1 83.3 44.5 77.2C44.8 77.1 45 76.5 44.9 76.1 44.6 75.8 44.1 75.5 43.6 75.7L33 80.9 34.9 75.4 39.5 73.1C40 72.9 40.2 72.3 39.9 71.9 39.8 71.6 39.3 71.3 38.8 71.5L35.7 73.1 37 69C37.2 68.6 37 68.1 36.5 67.9 36.3 67.8 35.9 67.9 35.6 68.2 35.6 68.2 35.5 68.3 35.4 68.4L34 72.5 32.4 69.4C32.3 69 31.7 68.9 31.4 69 31.2 69.1 31.2 69.1 31.2 69.1 30.8 69.4 30.8 69.9 31 70.2L33.3 74.8 31.5 80.5 26.1 69.7C25.8 69.3 25.4 69.2 24.9 69.4 24.9 69.4 24.8 69.5 24.8 69.5 24.5 69.7 24.4 70.1 24.6 70.6L30.6 82.8 29.1 87.3 27 83.2C26.7 82.8 26.2 82.5 25.9 82.9 25.7 82.7 25.6 82.8 25.6 82.8 25.4 83.1 25.3 83.6 25.4 83.9L28.3 89.5 26.7 94.2 23.5 90.6 24 84.3C24 83.8 23.5 83.3 23.1 83.3 22.7 83.4 22.3 83.7 22.2 84.1L22 88.8 18.7 85.1 19.6 71.6C19.6 71.1 19.3 70.7 18.8 70.7 18.3 70.7 17.9 71 17.9 71.5L17.1 83.3 13.2 78.8 13.5 73.7C13.6 73.2 13.2 72.9 12.7 72.8S11.9 73.1 11.8 73.6L11.6 77 8.8 73.8C8.5 73.4 8 73.4 7.6 73.7 7.2 74 7.2 74.5 7.5 74.9L10.3 78.1 6.9 78C6.6 78 6.4 78 6.2 78.1 6.1 78.2 6 78.5 6 78.8 5.9 79.3 6.3 79.7 6.7 79.7L11.9 79.9 15.9 84.4 3.9 83.7C3.7 83.7 3.5 83.7 3.3 83.8 3.2 83.9 3.1 84.3 3 84.5 3 85 3.4 85.4 3.8 85.4L17.4 86.2 20.7 89.9 16 89.5C15.8 89.5 15.5 89.7 15.4 89.8 15.3 89.9 15.1 90 15.1 90.3 15.1 90.7 15.5 91.2 15.9 91.2L22.3 91.7 25.4 95.3 20.6 96.3 15.4 92.7C15.1 92.5 14.6 92.5 14.3 92.7 14.2 92.9 14.2 92.9 14.3 93 13.9 93.3 14 93.9 14.5 94.2L18.3 96.7 13.5 97.8 2.2 90C1.8 89.9 1.5 90 1.2 90.2 1.1 90.3 1.1 90.3 1.1 90.3 0.8 90.8 0.8 91.3 1.3 91.5L11.2 98.2 5.3 99.3 1.1 96.5C0.6 96.2 0.2 96.3 0 96.5 0 96.5-0.2 96.6-0.2 96.6-0.4 97.1-0.2 97.6 0 97.8L3 99.7-1.3 100.5C-1.4 100.6-1.5 100.8-1.6 100.9-1.8 101-1.9 101.3-1.9 101.6-1.7 102.1-1.4 102.5-0.9 102.3L3.4 101.4 1.4 104.3C1.1 104.8 1.3 105.3 1.5 105.6 2 105.8 2.5 105.6 2.9 105.3L5.7 101 11.5 99.8 4.9 109.6C4.6 110.1 4.7 110.7 5.1 110.9 5.5 111.1 6 111.2 6.3 110.7Z" fill="rgba(255, 255, 255, 1)"></path><path d="M520.4 383.6L508.7 381 513.4 375.5C513.9 375 514 373.9 513.3 373 512.5 372.6 511.4 372.6 510.9 373.4L504.9 380.1 495.7 378.4 508.4 364.6C508.8 363.7 508.9 362.6 508.3 362.1 507.4 361.3 506.3 361.3 505.8 362.2L491.8 377.5 477.9 374.5 490.2 363.7 473.9 362.2 483.4 351.6 503.7 355.7C503.8 356 504.2 355.9 504.5 355.8 505.1 355.6 505.7 355.1 505.8 354.3 505.9 353.6 505.3 352.7 504.4 352.3L486 348.6 492.4 341.8 501.2 343.6C501.6 343.8 502 343.7 502.3 343.6 502.6 343.5 503.2 343 503.3 342.2 503.4 341.5 502.7 340.6 502 340.5L495 338.8 502.8 329.8C503.7 329.2 503.4 328.2 502.7 327.3 502.2 326.8 501.1 326.8 500.4 327.8L492.4 336.4 490.2 329.6C489.9 328.7 488.7 328.3 488.1 328.5 487.1 328.9 486.7 329.7 487 330.7L489.8 339.4 483.4 346.2 477.7 328.7C477.4 327.7 476.5 327.3 475.6 327.6 474.9 327.8 474.2 328.8 474.5 329.7L480.8 349.2 471.4 359.8 468 344 458.7 357.1 454.2 343.5 467.9 328.3C468.7 327.3 468.3 326.4 467.8 325.8 467.3 325.3 466.2 325.3 465.3 325.9L453.1 339.9 450.2 331.2 456.2 324.2C457 323.6 457.1 322.5 456.1 321.7 455.6 321.2 454.5 321.2 453.7 322.2L448.9 327.3 445.2 316C444.9 315 444.1 314.5 443.1 314.9S441.7 316 442 317L445.7 328.4 438.8 327C437.6 326.7 436.8 327.3 436.6 328.1 436.3 329.3 437 330.1 438 330.1L447 332.2 449.8 341 431.6 336.9C430.5 336.9 429.7 337.5 429.6 338.3 429.2 339.5 429.9 340.3 431 340.3L451 344.6 455.4 358.2 440.1 353.1 446.7 367.8 432.8 364.8 426.5 345.4C426.2 344.4 425 344.1 424.4 344.3 423.4 344.6 422.9 345.5 423.3 346.4L429.1 364.3 419.8 362.2 417 353.5C416.6 352.5 415.8 352.1 414.8 352.4 414.2 352.6 413.4 353.6 413.7 354.6L415.9 361.4 404.4 359C403.2 358.7 402.4 359.3 402.4 360.4 402.2 361.2 402.6 362.1 403.6 362.1L415.3 364.8 410.6 370.3C410.1 370.8 410 371.9 410.6 372.4 411.1 373 411.9 373.1 412.2 373 412.5 372.9 412.8 372.8 413.1 372.3L419.1 365.7 428.3 367.4 415.6 381.2C415.2 382.1 415.1 383.1 415.7 383.7 416.2 384.2 417 384.3 417.6 384.1 417.9 384 417.9 384 418.2 383.6L432.2 368.3 446.1 371.3 433.8 382.1 450.1 383.6 440.6 394.2 420.3 390.1C419.5 390 418.5 390.3 418.2 391.5 418.1 392.2 418.7 393.1 419.6 393.5L438 397.2 431.6 403.9 422.8 402.2C421.9 401.7 421.1 402.4 420.7 403.5 420.6 404.3 421.2 405.2 422.1 405.6L429 406.9 421.2 415.9C420.3 416.6 420.6 417.6 421.3 418.4 421.7 418.6 422.5 418.8 422.8 418.6 423.1 418.5 423.4 418.4 423.6 418L431.6 409.3 433.8 416.1C434.1 417.1 435.3 417.4 435.9 417.2L435.9 417.2C436.9 416.9 437.3 416.1 437 415.1L434.2 406.3 440.6 399.6 446.3 417.1C446.6 418.1 447.5 418.5 448.4 418.2S449.8 417 449.5 416L443.2 396.6 452.6 386 456 401.7 465.3 388.6 469.8 402.3 456.1 417.5C455.3 418.4 455.6 419.4 456.2 420 456.7 420.5 457.8 420.5 458.7 419.9L471 406.1 473.8 414.6 467.8 421.5C466.9 422.2 466.9 423.3 467.9 424 468.4 424.6 469.5 424.6 470.4 423.9L475.1 418.5 478.8 429.8C479.1 430.8 479.9 431.2 480.9 430.9S482.3 429.7 482 428.7L478.3 417.4 485.2 418.7C485.6 419 485.9 418.9 486.3 418.8 486.9 418.5 487.1 418.1 487.4 417.7 487.7 416.5 487 415.6 486 415.6L477 413.5 474.2 404.8 492.4 408.9C492.7 408.8 493 408.7 493.3 408.6 494 408.3 494.2 407.9 494.4 407.5 494.8 406.3 494.1 405.4 493 405.4L473 401.2 468.6 387.6 483.9 392.6 477.3 377.9 491.2 380.9 497.5 400.4C497.8 401.4 499 401.7 499.6 401.5 500.6 401.2 501.1 400.3 500.7 399.3L495 381.8 504.2 383.5 507 392.3C507.4 393.2 508.2 393.7 509.2 393.4S510.6 392.2 510.3 391.2L508.1 384.4 519.6 386.7C520 387 520.3 386.9 520.7 386.8 521 386.6 521.5 386.1 521.6 385.4 521.7 384.6 521.4 383.6 520.4 383.6ZM477.8 387.1L465.3 382.9 457.7 393.7 454.8 380.6 441.9 379.4 451.6 370.5 446.2 358.7 458.7 362.8 466.3 352.1 469.1 364.8 482.1 366.3 472.3 374.9 477.8 387.1Z" fill="rgba(255, 255, 255, 1)"></path><path d="M336.3 119.4L318.4 139.9 308.5 140.3 314.6 133.5C315.4 132.9 315.1 131.9 314.6 131 313.9 130.6 312.7 130.6 312.3 131.3L303.8 140.6 294 141.3 298.5 132.7 310.6 128.7C310.6 128.7 310.9 128.5 310.9 128.5 311.5 128.2 311.6 127.2 311.6 126.5 311 125.6 310.3 125.2 309.3 125.5L300.6 128.4 305 119.7 330.7 110.9C330.7 110.9 331.2 111 331.2 111 331.7 110.6 331.9 109.7 331.8 108.9 331.6 107.9 330.4 107.4 329.6 108L307.1 115.5 312.3 104.7 322.3 101.3C322.3 101.3 322.3 101.3 322.6 101.1 323.2 100.8 323.5 100.1 323.4 99.3 322.9 98.5 322 97.8 321 98.1L314.4 100.5 318.2 92.6C318.8 91.8 318.3 90.9 317.6 90.5 316.8 89.9 315.7 90.2 315.2 91.3L311.2 98.8 309.4 92.3C308.8 91.5 308 90.8 307.1 91.4 306.1 91.6 305.7 92.3 306 93.3L309.3 103.4 304 113.9 296.3 91.2C296.2 90.4 295.1 89.9 294.1 90.2 293.5 90.6 292.8 91.4 293.1 92.5L301.9 118.1 297.5 126.8 294.6 118.1C294.3 117.1 293.3 116.9 292.3 117.1 291.5 117.2 291.1 118.4 291.2 119.1L295.4 131 291.1 140 285.6 131.8 288.1 119.5C288.3 118.5 287.8 117.7 286.8 117.5 286.1 117.1 285 117.9 284.8 118.8L283 127.8 277.5 119.6 283.2 92.9C283.4 92 282.8 91.1 281.9 90.9 280.9 90.7 280.1 91.3 279.9 92.2L274.9 115.6 268.5 105.9 270.6 95.5C270.8 94.6 270.2 93.7 269.3 93.5 268.3 93.4 267.5 93.9 267.3 94.9L265.7 101.7 261 94.6C260.4 93.7 259.4 93.5 258.6 94.1 257.7 94.6 257.6 95.6 258.1 96.4L262.8 103.5 256.2 102.2C255.3 102 254.4 102.6 254.2 103.5S254.6 105.3 255.5 105.5L265.5 107.5 272.1 117.5 248.9 112.8C248 112.6 247.1 113.2 246.9 114.1 246.7 115 247.3 115.9 248.2 116.1L274.7 121.4 280.2 129.7 271.2 127.9C270.2 127.7 269.4 128.2 269.2 129.2 269 130.1 269.6 131 270.5 131.2L282.8 133.7 288.1 141.6 278.6 142.2 269 133.8C268.3 133.4 267.1 133.4 266.7 134.1 266.1 134.9 266.2 135.7 266.7 136.6L273.6 142.6 264.1 143.2 243.7 125.2C242.8 124.6 242.1 124.7 241.2 125.2 240.6 126.1 240.8 127.1 241.2 127.7L259.1 143.6 247.2 144.2 239.5 137.4C238.9 136.6 237.9 136.9 237 137.4 236.6 138.1 236.6 139.3 237.5 140L242.5 144.4 234 145.2C233 145 232.4 145.8 232.4 147.1 232.5 147.8 233.3 148.5 234.1 148.4L242.8 147.9 238 153.1C237.4 154 237.6 155 238.3 155.4 238.9 156.2 239.6 156.2 240.2 155.8 240.5 155.6 240.5 155.6 240.8 155.4L247.5 147.7 259.4 147.1 243.8 164.9C242.9 165.4 243.2 166.5 243.8 167.3 244.4 167.7 245.2 167.6 245.7 167.2 246 167 246 167 246 167L264.4 146.7 273.9 146.1 267.8 153C267.1 153.9 267.2 154.6 267.8 155.5 268.5 155.8 269.4 156 270 155.7 270.3 155.5 270.3 155.5 270.5 155.3L278.9 145.7 288.3 145.1 284.2 153.6 272.2 157.8C271.2 158.1 270.7 159.3 270.8 160 271.4 160.9 272.2 161.5 273.1 161L281.8 158.1 277.8 166.8 251.7 175.6C250.9 175.7 250.5 176.8 250.5 177.5 251.1 178.4 252 179.1 253 178.8L275.4 171.3 270.1 181.8 260.4 184.9C259.3 185.2 258.8 186.4 259.4 187.2 259.5 188 260.4 188.6 261.4 188.4L268 186 264.2 193.8C263.8 194.5 264.1 195.5 265 196.2 265.4 196.3 266.2 196.2 266.8 195.8 266.8 195.8 267 195.6 267.3 195.5L271.1 187.6 273.5 194.2C273.6 195 274.7 195.5 275.5 195.4 275.7 195.2 275.7 195.2 275.7 195.2 276.6 194.6 276.8 193.7 276.4 193.1L273.2 183.4 278.4 172.6 286.1 195.3C286.6 196.2 287.3 196.5 288.3 196.3 288.3 196.3 288.6 196.1 288.6 196.1 289.2 195.7 289.5 195 289.3 194L280.7 168.2 284.9 159.7 287.8 168.4C288.4 169.2 289.2 169.9 290.1 169.3 290.3 169.6 290.6 169.4 290.6 169.4 291.1 169 291.3 168.1 291.2 167.3L287 155.4 291.5 146.7 296.7 154.7 294.3 167C294.1 167.9 294.8 169.1 295.8 169.2 296.5 169.2 297.4 168.6 297.7 167.9L299.4 158.7 304.8 166.9 299.5 193.4C299.3 194.3 299.9 195.2 300.8 195.4 301.7 195.5 302.6 195 302.8 194L307.5 170.9 314.1 180.8 312.1 190.7C311.9 191.7 312.4 192.5 313.4 192.7S315.2 192.4 315.4 191.4L316.7 184.8 321.4 191.9C322 192.8 322.9 192.9 323.8 192.4 324.6 191.8 324.8 190.9 324.3 190L319.5 182.9 326.4 184.1C326.9 184.2 327.4 184.3 327.7 184.1 328 183.9 328.3 183.2 328.4 182.7 328.6 181.8 328.1 181 327.1 180.8L316.9 178.9 310.3 169 333.8 173.5C334.2 173.6 334.7 173.7 335 173.5 335.3 173.3 335.6 172.7 335.7 172.2 335.9 171.2 335.4 170.4 334.4 170.2L307.7 165 302.2 156.8 311.4 158.9C311.9 159 312.4 158.6 312.7 158.4 313 158.2 313.3 158 313.4 157.6 313.6 156.6 312.8 155.5 312.1 155.6L299.6 152.8 294.3 144.8 304 144.1 313.4 152.6C314 153 315 153.2 315.6 152.8 315.8 152.7 315.8 152.7 315.7 152.4 316.5 151.8 316.5 150.6 315.7 149.9L308.8 143.8 318.5 143.1 338.9 161.5C339.6 161.9 340.3 161.8 340.9 161.4 341.2 161.2 341.2 161.2 341.2 161.2 341.8 160.4 342 159.4 341.2 158.8L323.2 142.8 335.2 142.3 342.9 149C343.7 149.7 344.5 149.6 345.1 149.2 345.1 149.2 345.3 149 345.3 149 346 148.2 345.7 147.1 345.4 146.6L339.9 142 348.6 141.6C348.9 141.4 349.1 141.2 349.4 141 349.7 140.8 350.1 140.2 350.2 139.7 349.9 138.6 349.3 137.8 348.3 138.1L339.6 138.5 344.3 133.3C345 132.5 344.7 131.5 344.4 130.9 343.5 130.2 342.5 130.5 341.6 131.1L334.9 138.8 323.2 139.6 338.8 121.9C339.5 121 339.5 119.8 338.8 119.4 338 118.8 337 118.6 336.3 119.4Z" fill="rgba(255, 255, 255, 1)"></path><path d="M484.6 236.1L484.1 207.9 489.3 202.2 506.2 206.3 508.6 213.9 494.9 238.6C494.8 238.9 494.8 238.9 494.8 239.3 494.6 239.9 494.8 240.7 495.7 241.2 496.7 241.5 497.4 241.3 498 240.4L509.9 218.7 513.4 230.4 508.2 240.1C508.2 240.1 508.2 240.4 508.2 240.4 508 241.1 508.2 241.8 509.1 242.4 509.7 242.9 510.8 242.4 511.4 241.5L515 235.4 517.4 244C517.6 244.8 518.5 245.4 519.6 245.3S521 243.9 520.9 242.8L518.4 234.5 524.6 237.7C525.5 238.3 526.7 237.9 527.2 236.9 527.4 236.3 527.3 235.2 526.4 234.6L516.8 229.5 513.4 217.5 535 229.4C535.9 229.9 537.1 229.5 537.6 228.9 537.8 227.9 537.7 226.9 536.8 226.3L512 212.9 509.7 205 521.4 192.8 529.4 194.7 544.3 218.6C544.8 219.4 545.8 219.7 546.6 219.2S547.7 217.7 547.2 216.9L534 195.8 546.3 198.8 551.8 207.8C552.3 208.6 553.3 208.9 554.5 208.5S555.5 207 555 206.1L550.9 199.9 559.9 202C560.9 202.3 561.8 201.5 562 200.5 562.2 199.5 561.7 198.6 560.7 198.4L551.8 196.2 558 192.5C559.1 192 559.4 191.1 558.5 190.2 558 189.3 557 189.1 556.2 189.6L547.2 195.1 534.9 192.2 556.2 179.4C557 178.9 557.4 177.6 556.9 176.8S555.4 175.7 554.5 176.2L530.3 191 522.3 189.1 517.6 172.5 523.1 166.9 551.3 166.3C552.4 166.2 553 165.3 553.2 164.3 553.1 163.2 552.2 162.7 551.2 162.4L526.5 163.1 534.9 154.3 545.8 154.1C546.9 154 547.5 153.1 547.7 152.1 547.6 151.4 546.7 150.5 545.7 150.6L538.6 150.6 544.8 144C545.3 143.5 545.2 142.4 544.7 141.6 543.8 141 542.7 141.1 542.2 141.7L536 148.2 535.7 140.8C535.6 140.1 534.7 139.2 534 139.3 533 139.1 532.5 139.7 532.3 140.7 532.3 140.7 532.2 141 532.2 141L532.4 151.9 523.9 160.7 523.2 136C523.1 134.9 522.6 134.1 521.6 134.2 520.5 134.3 520 134.9 519.8 135.6 519.7 135.9 519.7 135.9 519.7 135.9L520.5 164.5 515 170.2 498.1 166.1 496 158.6 509.5 133.4C510 132.8 509.5 131.7 509 131.2 508 130.6 506.9 131 506.3 131.9L494.4 153.6 490.9 141.9 496.1 132.3C496.6 131.4 496.6 130.3 495.6 130 494.6 129.5 493.5 129.9 493 130.5L489.7 137 487.2 128.4C486.7 127.5 485.8 127 484.7 127.1 484.3 127.3 483.8 127.9 483.6 128.6 483.6 128.9 483.6 128.9 483.8 129.3L486.3 138 479.7 134.6C478.8 134.1 478 134.6 477.5 135.1 477.4 135.5 477.4 135.5 477.3 135.8 477.2 136.5 477.3 137.2 477.9 137.7L487.6 142.8 491 154.5 469.4 142.6C468.4 142.4 467.3 142.5 467.1 143.5 466.6 143.7 466.6 143.7 466.6 144.1 466.4 144.7 466.9 145.6 467.5 146L492.6 159.5 494.7 167 482.9 179.6 475.3 177.7 460.4 153.5C459.9 152.6 458.6 152.3 457.8 152.8S456.6 154.6 457.1 155.5L470.3 176.5 458.4 173.7 452.5 164.5C452 163.7 451 163.5 450.2 164 449.4 164.5 449.1 165.5 449.6 166.3L453.4 172.5 444.4 170.3C443.8 170.1 442.6 170.6 442.4 171.5 442.1 172.5 442.9 173.8 443.6 173.9L452.5 176.1 446.3 179.9C445.9 180.1 445.5 180.4 445.4 180.7 445.3 181.4 445.5 181.8 445.8 182.2 446.3 183 447.3 183.2 448.1 182.7L457.5 177.3 469.4 180.2 448.1 192.9C447.7 193.2 447.6 193.5 447.4 194.2 447.4 194.5 447.3 194.8 447.5 195.2 448 196.1 449.4 196.4 450.2 195.9L474.4 181.4 482 183.2 486.8 199.5 481.5 205.6 453 206C452.2 206.2 451.4 206.7 451.3 207.4 451.2 207.7 451.2 207.7 451.5 207.8 451.3 208.8 452.1 209.7 453.2 209.6L477.9 208.9 469.4 218 458.5 218.2C457.7 218.4 457.2 219 457.1 219.6 457.1 219.6 457 220 457 220 456.7 221 457.6 221.9 458.7 221.8L466.1 221.5 459.9 228C459.5 228.3 459.4 228.6 459.4 229 459.2 229.6 459.4 230.4 459.7 230.4 460.5 231.3 461.6 231.3 462.4 230.8L468.6 224.2 468.6 231.2C468.7 232.3 469.6 233.2 470.6 233.1 471.4 232.9 472.3 232.1 472.1 231.3L472 220.4 480.4 211.6 481.1 236.3C481.2 237.4 482.1 238 483.1 238.2 483.8 238 484.7 237.2 484.6 236.1ZM505.1 202.1L492.2 199 490.2 198.5 489.6 196.6 486 184.2 485.5 182 486.9 180.5 495.8 171.1 497.2 169.7 499.2 170.2 512.1 173.3 514.1 173.8 514.7 175.7 518.3 188.2 518.9 190 517.5 191.8 508.5 201.2 507.1 202.6 505.1 202.1Z" fill="rgba(255, 255, 255, 1)"></path><path d="M194.6 471.1L207.8 476 209.5 479.5 204.5 486.6 200.5 486.3 191.5 475.4C191.4 475.3 191.4 475.3 191.3 475.2 191 475 190.6 474.9 190.2 475.2 189.9 475.7 189.8 476 190.1 476.5L198 486 191.9 485.5 188.4 481.3C188.4 481.3 188.3 481.2 188.3 481.2 188 481 187.6 480.9 187.2 481.3 186.8 481.4 186.8 482.1 187.1 482.5L189.3 485.3 184.9 484.8C184.5 484.8 184 485.1 183.9 485.6S184.3 486.5 184.8 486.7L189.1 487 186.5 489.3C186 489.6 186 490.3 186.4 490.7 186.6 490.9 187.1 491 187.6 490.7L191.7 487.2 198 487.8 188.4 495.7C188 496 188 496.7 188.2 497 188.6 497.3 189.1 497.4 189.5 497.1L200.3 488 204.4 488.4 208 496.1 205.6 499.5 191.7 502C191.2 502.1 191 502.5 191 503S191.5 503.7 192 503.7L204.2 501.4 200.6 506.6 195.4 507.5C194.9 507.6 194.6 508 194.6 508.6S195.1 509.4 195.5 509.3L199.2 508.5 196.6 512.3C196.3 512.7 196.5 513.3 196.9 513.6 197.3 513.9 197.8 513.8 198.1 513.4L200.7 509.6 201.4 513.2C201.3 513.8 201.8 514.1 202.3 513.9 202.8 513.8 203.1 513.4 203 512.9L202.1 507.7 205.8 502.5 207.7 514.8C207.8 515.2 208.4 515.6 208.9 515.6S209.6 515.1 209.5 514.6L207.1 500.6 209.5 497.2 218.1 498.1 219.7 501.7 214.7 514.9C214.6 515.4 214.9 515.9 215.3 516.2 215.8 516.3 216.3 516 216.6 515.6L220.8 504 223.3 509.5 221.4 514.6C221.3 515.1 221.6 515.6 222 515.9 222.4 515.9 222.9 515.7 223.1 515.2L224.4 511.9 226.3 516C226.5 516.3 227 516.5 227.5 516.4 227.9 516.1 228.1 515.5 227.9 515.2L226 511.1 229.5 512.4C229.8 512.4 230.4 512.2 230.5 511.8 230.8 511.4 230.6 511.1 230.2 510.8 230.2 510.8 230 510.7 230 510.7L224.9 508.8 222.4 503.2 234 507.4C234.5 507.6 235 507.5 235.1 507 235.3 506.5 235.1 506.1 234.8 505.9 234.7 505.8 234.7 505.8 234.7 505.8L221.3 500.9 219.7 497.3 224.7 490.2 228.5 490.6 237.7 501.5C237.9 501.9 238.5 501.9 238.9 501.7 239.3 501.4 239.3 500.8 239 500.3L231.1 490.8 237.2 491.3 240.7 495.5C241.1 495.9 241.6 496.1 241.9 495.7 242.3 495.4 242.3 494.7 242.1 494.4L239.7 491.6 244.2 492.1C244.7 492 245.1 491.7 245.3 491.2 245.2 490.9 245 490.6 244.8 490.4 244.6 490.3 244.6 490.3 244.4 490.4L239.9 489.9 242.7 487.5C243.1 487.2 243 486.7 242.8 486.3 242.7 486.2 242.7 486.2 242.6 486.1 242.3 485.9 241.9 485.9 241.6 486.1L237.4 489.6 231.3 489.1 240.8 481.2C241.1 480.8 241.3 480.2 240.9 480 240.8 479.7 240.8 479.7 240.7 479.6 240.4 479.4 239.9 479.5 239.6 479.7L228.7 488.9 224.9 488.5 221.2 480.7 223.4 477.5 237.5 475C237.9 475 238.3 474.4 238.3 473.9S237.6 473.1 237.1 473.1L224.9 475.4 228.5 470.4 233.8 469.3C234.3 469.2 234.6 468.8 234.5 468.3 234.4 467.9 234 467.6 233.5 467.6L229.9 468.3 232.6 464.5C232.8 464.2 232.8 463.6 232.4 463.3 232 463 231.3 463.1 231.1 463.4L228.4 467.2 227.8 463.6C227.8 463.4 227.7 463.1 227.6 463 227.3 462.8 227.1 462.9 226.8 462.9 226.3 463 226 463.4 226.1 463.9L226.9 469.3 223.4 474.3 221.4 462C221.4 461.8 221.2 461.7 220.9 461.5 220.8 461.4 220.7 461.3 220.4 461.3 220 461.4 219.6 462 219.6 462.5L221.9 476.4 219.7 479.6 211.2 478.8 209.4 475.2 214.4 461.9C214.5 461.5 214.4 461 214.1 460.8 214 460.7 214 460.7 213.9 460.9 213.4 460.6 212.9 460.8 212.7 461.3L208.5 472.9 205.8 467.3 207.7 462.2C207.8 461.8 207.6 461.5 207.3 461.3 207.3 461.3 207.2 461.2 207.2 461.2 206.8 460.9 206.2 461.1 206 461.6L204.8 465.1 202.9 461.1C202.8 460.8 202.7 460.7 202.6 460.6 202.3 460.4 201.9 460.4 201.8 460.5 201.2 460.7 201.1 461.2 201.2 461.7L203.1 465.8 199.8 464.5C199.3 464.4 198.7 464.6 198.6 465.1 198.5 465.5 198.7 466.1 199.1 466.1L204.2 468 206.8 473.6 195.1 469.4C194.6 469.2 194.2 469.5 193.9 469.9 193.8 470.3 194.1 470.9 194.6 471.1ZM206.6 486.8L210.4 481.4 211 480.6 212 480.6 218.5 481.2 219.6 481.4 220 482.3 222.7 488.2 223.1 489.1 222.5 490 218.7 495.4 218.1 496.2 217.1 496.2 210.7 495.6 209.7 495.5 209.1 494.5 206.4 488.6 206 487.7 206.6 486.8Z" fill="rgba(255, 255, 255, 1)"></path><path d="M739.3 196.3L716.7 211.4 707 209.3 714.7 204.2C715.6 203.9 715.6 202.8 715.3 201.8 714.8 201.3 713.6 201 713 201.5L702.4 208.3 692.8 206.5 699.3 199.3 712.1 198.6C712.1 198.6 712.4 198.5 712.4 198.5 713 198.3 713.5 197.4 713.6 196.6 713.2 195.7 712.7 195.1 711.6 195.1L702.5 195.7 709 188.5 736.1 186.6C736.1 186.6 736.5 186.8 736.5 186.8 737.2 186.6 737.6 185.7 737.7 185 737.7 183.9 736.7 183.1 735.7 183.4L712.1 184.9 719.9 175.8 730.5 175.2C730.5 175.2 730.5 175.2 730.8 175 731.4 174.8 732 174.3 732.1 173.5 731.7 172.6 731.1 171.7 730 171.7L723 172.3 728.7 165.7C729.6 165 729.2 164.1 728.7 163.5 728.1 162.7 727 162.7 726.2 163.6L720.4 169.9 720.3 163.1C720 162.1 719.3 161.3 718.4 161.6 717.3 161.6 716.7 162.1 716.7 163.2L717.4 173.8 709.6 182.5 708 158.6C708.1 157.8 707.1 157.1 706.1 157.1 705.4 157.3 704.5 158 704.6 159L706.4 186.1 699.9 193.3 699.3 184.2C699.3 183.1 698.4 182.7 697.4 182.7 696.6 182.5 695.9 183.5 695.8 184.3L696.8 196.9 690.3 204.4 687.2 195.1 692.7 183.9C693.2 183 692.8 182 692 181.6 691.4 181.1 690.1 181.5 689.7 182.3L685.6 190.5 682.5 181.2 694.8 156.9C695.3 156 694.9 155.1 694.1 154.6 693.2 154.2 692.3 154.5 691.8 155.4L681 176.6 677.3 165.7 682 156.2C682.4 155.3 682.1 154.3 681.3 153.9 680.4 153.5 679.4 153.8 679 154.7L675.7 160.8 673 152.7C672.6 151.8 671.8 151.3 670.8 151.7 669.8 152 669.4 152.8 669.7 153.8L672.4 161.9 666.4 158.9C665.5 158.5 664.6 158.8 664.1 159.6S664 161.5 664.9 161.9L673.9 166.4 677.7 177.7 656.6 167.2C655.7 166.8 654.8 167.1 654.3 168 653.9 168.8 654.2 169.8 655.1 170.2L679.3 182.3 682.4 191.6 674.2 187.5C673.3 187.1 672.4 187.4 671.9 188.3 671.5 189.2 671.8 190.1 672.7 190.6L683.9 196.2 687 205.2 677.7 203.3 670.5 192.7C670 192.2 668.8 191.9 668.3 192.4 667.4 193.1 667.3 193.8 667.6 194.8L672.7 202.4 663.4 200.5 648.3 177.9C647.7 177 646.9 176.9 645.9 177.3 645.1 177.9 645.1 179 645.3 179.6L658.5 199.7 646.8 197.1 641.1 188.6C640.8 187.6 639.7 187.6 638.7 187.9 638.2 188.5 637.9 189.7 638.5 190.5L642.2 196.1 633.8 194.6C632.9 194.2 632.1 194.8 631.7 196 631.6 196.8 632.3 197.7 633 197.8L641.6 199.6 635.6 203.4C634.8 204 634.8 205.1 635.3 205.6 635.6 206.6 636.4 206.7 637 206.5 637.4 206.4 637.4 206.4 637.7 206.3L646.2 200.5 657.8 203.1 638.1 216.2C637.2 216.5 637.2 217.6 637.5 218.6 638 219.1 638.8 219.2 639.4 219 639.8 218.9 639.8 218.9 639.8 218.9L662.8 204 672.1 205.9 664.4 211C663.6 211.6 663.5 212.4 663.8 213.3 664.3 213.9 665.2 214.3 665.8 214.1 666.2 214 666.2 214 666.5 213.9L677 206.7 686.3 208.7 680.1 215.8 667.5 216.8C666.4 216.8 665.6 217.7 665.5 218.5 665.9 219.5 666.5 220.3 667.5 220L676.6 219.5 670.5 226.9 643 228.6C642.3 228.5 641.5 229.4 641.4 230.2 641.7 231.2 642.4 232 643.5 232L667.1 230.6 659.2 239.3 649 239.9C647.9 239.9 647.1 240.9 647.5 241.8 647.4 242.6 648 243.4 649.1 243.4L656.1 242.9 650.4 249.5C649.8 250 649.8 251.1 650.5 251.9 650.9 252.2 651.7 252.3 652.3 252.1 652.3 252.1 652.7 251.9 653 251.8L658.7 245.3 659.2 252.3C659.1 253 660.1 253.8 660.8 253.9 661.2 253.8 661.2 253.8 661.2 253.8 662.1 253.4 662.6 252.6 662.4 251.9L661.8 241.7 669.5 232.6 671.1 256.5C671.4 257.5 672 258.1 673 258.1 673 258.1 673.4 257.9 673.4 257.9 674 257.7 674.5 257.2 674.5 256.1L673 228.9 679.2 221.8 679.8 231C680.1 232 680.8 232.8 681.7 232.5 681.8 232.8 682.2 232.7 682.2 232.7 682.8 232.5 683.2 231.6 683.3 230.9L682.3 218.3 688.9 211 691.9 220.1 686.4 231.3C685.9 232.2 686.4 233.4 687.2 233.9 688 234 688.9 233.7 689.5 233.1L693.5 224.6 696.6 234 684.6 258.1C684.1 259 684.5 260 685.3 260.4 686.2 260.8 687.2 260.5 687.6 259.6L698.1 238.5 701.9 249.8 697.4 258.9C697 259.7 697.3 260.7 698.2 261.1S700 261.2 700.4 260.4L703.4 254.3 706.1 262.4C706.5 263.4 707.3 263.8 708.3 263.5 709.3 263.2 709.7 262.3 709.4 261.3L706.7 253.2 713 256.1C713.5 256.4 713.9 256.6 714.2 256.5 714.5 256.4 715.1 255.8 715.3 255.4 715.7 254.5 715.4 253.6 714.5 253.1L705.1 248.7 701.4 237.4 722.8 247.8C723.3 248 723.7 248.3 724 248.1 724.3 248 724.9 247.5 725.1 247.1 725.5 246.2 725.2 245.2 724.3 244.8L699.8 232.9 696.7 223.5 705 227.9C705.4 228.1 706.1 227.9 706.4 227.8 706.7 227.7 707 227.6 707.3 227.2 707.7 226.3 707.3 225 706.5 224.9L695.2 219 692.1 209.9 701.7 211.8 708.5 222.4C709.1 223 710 223.4 710.6 223.2 710.9 223.1 710.9 223.1 710.8 222.7 711.8 222.4 712.1 221.2 711.5 220.4L706.4 212.7 716 214.5 730.9 237.6C731.4 238.1 732.2 238.2 732.8 238 733.2 237.9 733.2 237.9 733.2 237.9 734 237.2 734.4 236.4 733.8 235.5L720.6 215.5 732.3 218.1 738 226.6C738.6 227.4 739.4 227.5 740 227.3 740 227.3 740.4 227.2 740.4 227.2 741.2 226.6 741.2 225.5 741 224.8L736.9 219 745.4 220.8C745.7 220.7 746.1 220.6 746.4 220.5 746.7 220.4 747.2 219.9 747.5 219.4 747.5 218.4 747.1 217.4 746.1 217.4L737.5 215.6 743.5 211.8C744.3 211.1 744.3 210.1 744.1 209.4 743.4 208.6 742.4 208.6 741.4 208.9L732.9 214.6 721.4 212.4 741.1 199.3C741.9 198.6 742.2 197.5 741.7 196.9 741.1 196.1 740.2 195.6 739.3 196.3Z" fill="rgba(255, 255, 255, 1)"></path><path d="M302.4 478.6L310.1 476.4 309 481.7C308.8 482.2 309.2 483 309.9 483.3 310.7 483.3 311.4 482.9 311.5 482.4L313.2 475.4 320.4 473.5 316.9 487.5C316.8 488.4 317.1 489.1 317.9 489.1 318.6 489.4 319.3 489 319.5 488.1L323.2 472.7 329.7 470.7 341 481.4 339.7 487.2 323.4 491.8C323.2 492 323 492.2 322.8 492.4 322.7 492.6 322.5 493.1 322.5 493.5 322.7 494.4 323.4 494.7 324.2 494.3L339.1 490.1 337.2 497.2 329.7 499.6C329.5 499.4 329.4 499.6 329.2 499.8 328.8 500.2 328.7 500.7 328.9 501.3 329 501.8 329.8 502.1 330.5 502.1L336.6 500.2 334.5 509.1C334.3 509.6 334.7 510.3 335.4 510.7 336.1 510.7 336.9 510.3 337 509.7L339 501.4 342.9 505.1C343.4 505.6 344.3 505.4 344.7 505 345.2 504.5 345.4 503.5 344.8 503L339.8 498.3 341.6 491.2 352 501C352.5 501.6 353.3 501.5 353.8 501 354.3 500.4 354.3 499.7 353.8 499.2L342.3 488.3 343.5 482.1 358.6 477.7 362.9 481.8 359.1 497.6C358.8 498.3 359.4 499.2 360.1 499.2 360.8 499.5 361.3 499 361.7 498.2L365.1 483.9 370.5 489 368.7 496.1C368.5 496.6 369.1 497.5 369.6 497.7S371.1 497.3 371.4 496.5L372.7 491.1 379.2 497.2C379.8 497.8 380.7 497.6 381.2 497 381.5 496.6 381.7 495.7 381.1 495.2L374.7 489 380.2 487.3C380.7 487.1 381.3 486.5 381.1 485.6 380.9 485.1 380 484.6 379.4 484.8L372.4 486.9 367 481.8 381.2 477.7C381.9 477.3 382.5 476.7 382.3 475.8 382.1 475.3 381.2 474.8 380.6 475L364.8 479.7 360.6 475.7 364.1 460.4 370.3 458.8 381.7 469.7C382.3 470.2 383 470.2 383.6 469.6 384.1 469.1 384.2 468.2 383.7 467.7L373.3 457.8 380.3 455.6 385.3 460.4C385.9 460.9 386.6 460.9 387.1 460.3 387.6 459.8 387.6 459.1 387.1 458.5L383.2 454.8 391.4 452.4C392 452.3 392.5 451.3 392.3 450.8 391.9 450.1 391.4 449.6 390.6 449.9L382 452.3 383.5 446.3C383.5 445.6 383.1 444.9 382.5 444.7 382 444.6 381.5 444.7 381.1 445.1 381.1 445.1 380.9 445.3 380.9 445.7L379 453.3 372 455.5 375.4 440.4C375.7 439.7 375.3 438.9 374.4 438.8 374.1 438.8 373.7 438.8 373.4 439.2 373.2 439.4 373 439.5 372.8 439.7L369.1 456.3 363.4 457.9 352 447.1 353.7 440.6 368.9 436C369.8 435.8 370.2 435.1 369.8 434.4 369.8 433.7 369.1 433.3 368.2 433.5L354.3 437.7 356 430.4 362.8 428.4C363.3 428.2 363.7 427.5 363.6 426.8 363.3 426 362.7 425.5 362 425.9L356.8 427.3 358.6 419.5C358.9 418.7 358.4 418.2 357.6 417.9 357.3 417.9 356.7 418.1 356.4 418.4 356.4 418.4 356.2 418.6 356 418.8L354.1 427.2 349.4 422.8C349.1 422.4 348.1 422.3 347.6 422.8 347.1 423.4 347.3 424.3 347.7 424.6L353.4 430.1 351.8 437.4 340.5 426.6C339.9 426.1 339 426.3 338.5 426.9S338 428.1 338.5 428.7L351 440.5 349.5 446.5 334.4 450.8 329.6 446.3 333.5 430.3C333.5 429.5 333.1 428.8 332.4 428.5 332 428.5 331.5 428.7 331.1 429 331 429.2 330.8 429.4 330.8 429.8L327.4 444.2 322 439 323.6 431.8C323.8 431.2 323.4 430.5 322.7 430.2 322 430.2 321.2 430.6 321.1 431.1L319.8 436.9 313.8 431.3C313.5 431 312.4 431 312 431.3 311.5 431.9 311.5 433 311.9 433.3L317.8 439 312.3 440.4C312.1 440.6 311.9 440.8 311.7 440.9 311.4 441.3 311.2 441.9 311.2 442.2 311.6 442.9 312.3 443.3 313.1 443.3L320.1 441.1 325.4 446.2 311.3 450.4C310.4 450.6 310 451.3 310.2 451.8 310.4 452.7 311.1 453.1 311.9 453.1L327.7 448.3 332.5 452.9 328.9 468.2 323 469.9 310.6 458.2C310 457.6 309.3 457.6 308.7 458.2 308.2 458.8 308.2 459.5 308.8 460L320.1 470.7 312.9 472.7 307.2 467.3C306.8 466.9 305.7 467 305.2 467.5 304.7 468.1 304.9 469 305.2 469.3L309.9 473.7 301.6 476.1C301.4 476.3 301.4 476.3 301.3 476.5 300.9 476.8 300.7 477.4 300.8 477.8 301.1 478.5 301.9 478.8 302.4 478.6ZM334.7 455L335.2 453.4 336.6 453 348.8 449.4 350.3 449 351.4 450 360.5 458.7 361.6 459.7 361.3 461.2 358.3 473.6 358 475 356.4 475.6 344.4 479 342.8 479.6 341.6 478.5 332.6 469.9 331.4 468.8 331.9 467.2 334.7 455Z" fill="rgba(255, 255, 255, 1)"></path><path d="M553.9 474.4L553.6 467.7 557.7 469.6C558.1 469.8 558.7 469.7 559.2 469.1 559.3 468.6 559.1 467.9 558.7 467.7L553.4 465 553.1 458.8 563.8 464.3C564.5 464.6 565.2 464.4 565.3 463.8 565.7 463.3 565.6 462.6 564.9 462.3L553 456.4 552.6 450.7 563.4 443.6 567.9 445.7 568.6 459.8C568.7 460 568.8 460.2 568.9 460.4 569.1 460.5 569.5 460.8 569.8 460.8 570.5 460.8 570.9 460.3 570.8 459.7L570.2 446.8 575.6 449.6 576.1 456.1C575.9 456.3 576 456.4 576.2 456.6 576.4 457 576.8 457.2 577.3 457.2 577.8 457.1 578.2 456.6 578.3 456L577.8 450.7 584.7 454C585.1 454.3 585.7 454.1 586.2 453.6 586.3 453 586.1 452.3 585.7 452.1L579.3 448.9 583 446.5C583.5 446.1 583.5 445.4 583.3 445 582.9 444.5 582.2 444.2 581.7 444.5L576.9 447.7 571.5 444.9 581.4 438.3C582 438 582.1 437.4 581.7 436.8 581.4 436.3 580.8 436.2 580.2 436.5L569.2 443.8 564.5 441.6 563.7 428.6 567.8 425.9 580 431.9C580.5 432.3 581.3 432 581.4 431.4 581.9 430.9 581.5 430.3 581 429.9L569.9 424.4 575.1 421 580.5 423.8C580.9 424.1 581.8 423.8 582 423.4S582 422.1 581.4 421.7L577.2 419.6 583.5 415.5C584 415.2 584 414.4 583.6 413.9 583.4 413.5 582.7 413.2 582.2 413.6L575.9 417.7 575.5 412.8C575.5 412.4 575.1 411.8 574.4 411.8 573.9 411.9 573.3 412.5 573.4 413L573.8 419.1 568.7 422.5 567.9 410.2C567.8 409.5 567.4 409 566.6 409 566.2 409.1 565.6 409.7 565.6 410.2L566.5 423.9 562.4 426.6 550.7 420.8 550.5 415.6 561.6 408.3C562.1 407.9 562.2 407.3 561.9 406.8 561.5 406.3 560.8 406 560.3 406.3L550.3 412.9 549.9 406.8 554.7 403.7C555.2 403.3 555.3 402.7 555 402.2 554.6 401.6 554 401.5 553.5 401.9L549.7 404.3 549.4 397.2C549.3 396.7 548.7 396.1 548.2 396.2 547.5 396.4 547 396.7 547.2 397.4L547.5 404.8 542.9 402.5C542.3 402.4 541.7 402.5 541.4 403 541.2 403.4 541.2 403.8 541.5 404.2 541.5 404.2 541.6 404.4 541.9 404.4L547.7 407.5 548.2 413.6 536.6 408C536 407.5 535.4 407.7 535.1 408.4 535 408.7 535 409 535.2 409.4 535.3 409.6 535.4 409.7 535.5 409.9L548.3 416 548.5 421 537.7 428.2 532.7 425.6 531.8 412.4C531.8 411.6 531.3 411.2 530.6 411.4 530 411.2 529.6 411.8 529.6 412.5L530.4 424.5 524.8 421.9 524.5 416C524.4 415.5 523.9 415.1 523.3 414.9 522.6 415.1 522.1 415.5 522.3 416.1L522.5 420.6 516.4 417.7C515.9 417.3 515.4 417.6 515 418.2 514.9 418.5 515 418.9 515.2 419.3 515.2 419.3 515.3 419.5 515.4 419.6L521.9 422.8 517.4 425.7C517.1 426 516.8 426.7 517.1 427.2 517.5 427.8 518.2 427.8 518.6 427.5L524.1 423.9 529.7 426.6 518.9 433.7C518.3 434.1 518.3 434.8 518.7 435.4S519.6 436 520.2 435.7L532.1 427.8 536.7 430.1 537.4 443.2 532.8 446.2 520.5 440.1C519.9 439.9 519.3 440.1 518.8 440.6 518.8 440.9 518.8 441.4 519.1 441.8 519.2 441.9 519.3 442.1 519.6 442.2L530.6 447.7 525.5 451.1 519.9 448.4C519.5 448.1 518.8 448.3 518.4 448.8 518.3 449.4 518.4 450.1 518.9 450.3L523.3 452.5 517.7 456.2C517.3 456.5 517.1 457.4 517.4 457.7 517.7 458.2 518.6 458.4 519 458.2L524.6 454.4 524.7 459.2C524.9 459.4 525 459.6 525.1 459.7 525.3 460.1 525.7 460.3 526 460.4 526.7 460.2 527.1 459.7 527.2 459.1L526.8 453 531.9 449.6 532.6 461.9C532.6 462.7 533.2 463.1 533.6 463 534.4 463 534.8 462.5 535 461.9L534.1 448.2 538.7 445.1 550.4 450.9 550.7 456.1 538.8 463.9C538.3 464.3 538.2 464.9 538.5 465.4 538.9 465.9 539.5 466.1 540 465.7L550.9 458.5 551.1 464.7 545.6 468.4C545.3 468.6 545.1 469.5 545.4 470 545.8 470.6 546.6 470.6 546.9 470.3L551.4 467.4 551.7 474.6C551.9 474.7 551.9 474.7 552 474.9 552.2 475.3 552.6 475.5 552.9 475.6 553.6 475.4 554 474.9 553.9 474.4ZM540.8 443.7L539.6 443 539.5 441.8 538.9 431.2 538.8 430 539.9 429.2 548.6 423.5 549.7 422.8 550.8 423.3 560.3 428 561.4 428.6 561.6 430 562.1 440.4 562.3 441.8 561.2 442.5 552.5 448.3 551.4 449 550.2 448.3 540.8 443.7Z" fill="rgba(255, 255, 255, 1)"></path></g><defs><mask id="SvgjsMask2003"><rect width="767" height="525" fill="#ffffff"></rect></mask><filter id="SvgjsFilter2004"><feGaussianBlur stdDeviation="1"></feGaussianBlur></filter></defs></svg>