<svg xmlns="http://www.w3.org/2000/svg" version="1.1" xmlns:xlink="http://www.w3.org/1999/xlink" xmlns:svgjs="http://svgjs.dev/svgjs" width="1440" height="560" preserveAspectRatio="none" viewBox="0 0 1440 560"><g mask="url(&quot;#SvgjsMask1075&quot;)" fill="none"><path d="M 0,272 C 41.2,222 123.6,26.8 206,22 C 288.4,17.2 329.6,243 412,248 C 494.4,253 535.6,65.6 618,47 C 700.4,28.4 741.6,151.2 824,155 C 906.4,158.8 947.6,59.2 1030,66 C 1112.4,72.8 1154,185.6 1236,189 C 1318,192.4 1399.2,104.2 1440,83L1440 560L0 560z" fill="rgba(0, 0, 0, 1)"></path><path d="M 0,530 C 72,488.8 216,330.6 360,324 C 504,317.4 576,505.8 720,497 C 864,488.2 936,271.8 1080,280 C 1224,288.2 1368,486.4 1440,538L1440 560L0 560z" fill="rgba(0, 0, 255, 1)"></path></g><defs><mask id="SvgjsMask1075"><rect width="1440" height="560" fill="#ffffff"></rect></mask></defs></svg>