<svg xmlns="http://www.w3.org/2000/svg" version="1.1" xmlns:xlink="http://www.w3.org/1999/xlink" xmlns:svgjs="http://svgjs.dev/svgjs" width="1440" height="560" preserveAspectRatio="none" viewBox="0 0 1440 560"><g mask="url(&quot;#SvgjsMask1005&quot;)" fill="none"><path d="M 0,257 C 57.6,211.8 172.8,46 288,31 C 403.2,16 460.8,181.8 576,182 C 691.2,182.2 748.8,31.8 864,32 C 979.2,32.2 1036.8,178.6 1152,183 C 1267.2,187.4 1382.4,79.8 1440,54L1440 560L0 560z" fill="rgba(255, 255, 255, 1)"></path><path d="M 0,505 C 96,462.2 288,302.6 480,291 C 672,279.4 768,443.8 960,447 C 1152,450.2 1344,335 1440,307L1440 560L0 560z" fill="rgba(0, 0, 255, 1)"></path></g><defs><mask id="SvgjsMask1005"><rect width="1440" height="560" fill="#ffffff"></rect></mask></defs></svg>